<svg width="656" height="263" viewBox="0 0 656 263" fill="none" xmlns="http://www.w3.org/2000/svg">
<path d="M164.399 44.8726H251.885V0.516113H164.399V44.8726Z" fill="white"/>
<path d="M252.399 45.3877H163.882V0H252.399V45.3877ZM164.398 44.8724H251.886V0.515365H164.398V44.8724Z" fill="#3F3D56"/>
<path d="M189.018 15.4424H180.106V16.1862H189.018V15.4424Z" fill="#FF6F00"/>
<path d="M200.9 15.4424H191.988V16.1862H200.9V15.4424Z" fill="#FF6F00"/>
<path d="M218.168 22.3223H209.256V23.0661H218.168V22.3223Z" fill="#FF6F00"/>
<path d="M230.236 22.3223H221.324V23.0661H230.236V22.3223Z" fill="#FF6F00"/>
<path d="M230.236 15.4424H204.057V16.1862H230.236V15.4424Z" fill="#FF6F00"/>
<path d="M206.285 22.3223H180.106V23.0661H206.285V22.3223Z" fill="#FF6F00"/>
<path d="M206.285 29.2021H180.106V29.9459H206.285V29.2021Z" fill="#FF6F00"/>
<path d="M230.236 29.2021H212.041V29.9459H230.236V29.2021Z" fill="#FF6F00"/>
<path d="M175.886 16.1858L170.57 10.8617L175.886 5.53711L176.95 6.60262L172.697 10.8617L176.95 15.1202L175.886 16.1858Z" fill="#FF6F00"/>
<path d="M242.268 40.1051L241.205 39.0401L245.456 34.7816L241.205 30.523L242.268 29.4585L247.583 34.7816L242.268 40.1051Z" fill="#FF6F00"/>
<path d="M236.672 29.2022L233.524 39.6045L234.963 40.0414L238.111 29.639L236.672 29.2022Z" fill="#FF6F00"/>
<path d="M192.34 250.127H0.503509C0.36997 250.127 0.241892 250.074 0.147466 249.979C0.05304 249.884 0 249.756 0 249.622C0 249.489 0.05304 249.36 0.147466 249.266C0.241892 249.171 0.36997 249.118 0.503509 249.118H192.34C192.474 249.118 192.602 249.171 192.696 249.266C192.791 249.36 192.844 249.489 192.844 249.622C192.844 249.756 192.791 249.884 192.696 249.979C192.602 250.074 192.474 250.127 192.34 250.127Z" fill="#F2F2F2"/>
<path d="M95.2339 232.591L95.8759 239.979C95.8759 239.979 99.8612 249.393 94.4993 249.372C89.1374 249.351 87.6662 248.406 87.6662 248.406C87.6662 248.406 85.5222 248.129 85.2493 248.933C84.9764 249.737 66.8783 250.339 67.4362 244.703C67.9941 239.067 84.9065 234.029 84.9065 234.029L86.5338 229.202L95.2339 232.591Z" fill="#090814"/>
<path d="M151.884 69.1774L153.58 66.2057L145.102 64.5073L144.254 68.7528L145.526 72.149L151.884 69.1774Z" fill="#FF6F00"/>
<path opacity="0.2" d="M151.884 69.1774L153.58 66.2057L145.102 64.5073L144.254 68.7528L145.526 72.149L151.884 69.1774Z" fill="black"/>
<path d="M147.009 67.2678C153.096 67.2678 158.031 62.3257 158.031 56.2294C158.031 50.133 153.096 45.1909 147.009 45.1909C140.922 45.1909 135.987 50.133 135.987 56.2294C135.987 62.3257 140.922 67.2678 147.009 67.2678Z" fill="#FFB9B9"/>
<path d="M137.682 56.2285L128.78 71.0878L141.922 78.73L148.705 63.0215L137.682 56.2285Z" fill="#FFB9B9"/>
<path d="M136.835 73.6359L125.389 68.9634C125.389 68.9634 108.008 71.9386 106.311 77.4568C104.613 82.975 104.615 127.554 104.615 127.554C104.615 127.554 100.376 138.592 106.311 139.017C106.311 139.017 104.615 141.564 106.311 141.989C108.006 142.413 125.387 141.989 132.169 144.112C138.952 146.235 152.517 147.932 152.517 145.81V141.989C152.517 141.989 155.484 139.017 153.789 133.921C152.094 128.824 149.974 117.788 149.974 117.788C149.974 117.788 162.692 89.767 161.42 86.3717C160.148 82.9765 144.621 72.4731 144.621 72.4731L136.835 73.6359Z" fill="#FF6F00"/>
<path d="M110.552 127.553L110.976 130.95L116.911 123.732H114.792L110.552 127.553Z" fill="#FFB9B9"/>
<path d="M136.835 73.6355L124.541 70.6638C124.541 70.6638 121.997 68.5408 121.997 65.9938C121.997 63.4467 125.812 59.6254 128.356 57.0783C128.578 56.8506 128.843 56.6703 129.136 56.5484C129.43 56.4264 129.745 56.3653 130.062 56.3688C132.58 56.3476 135.632 59.6546 135.632 59.6546L132.245 65.314L132.094 65.5662L136.835 73.6355Z" fill="#FF6F00"/>
<path d="M146.309 68.5656L153.578 66.2056C153.578 66.2056 155.91 75.3329 153.366 75.7579C150.822 76.183 136.833 74.9087 136.833 74.9087L146.309 68.5656Z" fill="#FF6F00"/>
<path d="M107.16 139.864L101.649 171.28C101.649 171.28 99.5294 175.101 100.377 176.799C101.225 178.497 101.649 178.497 100.377 179.347C99.1055 180.196 97.4101 179.347 97.8336 181.469C98.0876 182.728 98.2295 184.007 98.2575 185.29L86.3878 226.047C86.3878 226.047 78.7571 229.444 84.2681 231.567C89.779 233.69 95.2899 235.387 96.5617 233.265C97.8336 231.143 96.5617 228.595 96.5617 228.595L116.062 181.894C116.062 181.894 119.029 177.649 119.029 175.101C119.029 172.554 128.781 154.301 128.781 154.301C128.781 154.301 129.205 172.556 129.629 173.83C130.053 175.105 128.781 177.651 128.781 179.35C128.781 181.048 127.933 181.048 128.781 181.897C129.629 182.746 129.629 192.511 129.629 192.511C129.629 192.511 124.543 230.296 127.509 230.721C130.475 231.146 138.955 230.296 138.955 228.598C138.992 228.155 138.889 227.712 138.661 227.331C138.432 226.95 138.09 226.651 137.683 226.475L143.194 194.209C142.963 192.921 143.11 191.594 143.618 190.388C144.466 188.69 144.466 188.69 144.466 187.84C144.466 186.991 144.042 186.567 144.466 186.142C144.742 185.775 144.891 185.328 144.889 184.868C144.889 184.868 144.042 182.321 144.466 181.897C144.89 181.473 154.215 149.63 151.248 145.81C148.281 141.989 107.16 139.864 107.16 139.864Z" fill="#090814"/>
<path d="M127.933 229.446L124.966 236.239C124.966 236.239 118.183 243.881 123.27 245.579C128.357 247.278 130.053 246.853 130.053 246.853C130.053 246.853 132.173 247.278 132.173 248.127C132.173 248.976 149.129 255.344 150.4 249.825C151.67 244.306 137.258 234.117 137.258 234.117V229.019L127.933 229.446Z" fill="#090814"/>
<path d="M136.273 59.2499C136.954 59.204 137.408 58.4607 137.597 57.7537C137.785 57.0468 137.833 56.2717 138.217 55.6641C139.271 54 142.011 54.6717 143.124 53.0519C143.808 52.0555 143.665 50.4338 144.653 49.7999C145.277 49.3995 146.073 49.6058 146.76 49.8574C149.424 50.8395 151.884 52.3068 154.015 54.185L154.901 53.4634L156.008 55.6772C156.437 55.1593 157.264 55.5607 157.624 56.1366C157.984 56.7124 158.158 57.4477 158.671 57.8667C159.489 58.5349 160.765 57.9675 161.261 56.9999C161.756 56.0322 161.674 54.8466 161.503 53.7559C161.075 51.0234 160.164 48.3893 158.811 45.9775L159.823 45.3699L158.514 45.1828L159.014 44.0457L157.644 44.0296L158.185 43.0573C156.343 43.6902 154.44 42.5309 152.681 41.6666C149.775 40.1609 146.473 39.6007 143.234 40.064C141.598 40.3302 140.034 40.9348 138.643 41.8395C137.253 42.7442 136.066 43.929 135.158 45.3185C133.765 47.5115 132.96 50.6965 133.657 53.3227C134.29 55.7104 137.053 56.0821 136.273 59.2499Z" fill="#090814"/>
<path d="M108.857 75.7587C108.857 75.7587 106.313 75.3341 104.618 78.7303C102.923 82.1266 90.2051 109.298 96.5619 117.789C102.919 126.28 108.856 128.827 108.856 128.827L110.127 129.252L116.49 122.459L114.37 119.487C114.37 119.487 114.37 116.515 112.674 116.091C110.978 115.666 110.978 116.94 110.554 115.241C110.13 113.543 112.25 114.817 110.13 113.118C108.011 111.42 109.706 110.571 109.706 110.571L108.857 75.7587Z" fill="#FF6F00"/>
<path d="M153.792 132.436L153.368 135.832L147.433 128.615H149.553L153.792 132.436Z" fill="#FFB9B9"/>
<path d="M153.156 84.8865C153.156 84.8865 159.09 81.9148 160.786 85.3111C162.481 88.7073 174.139 114.18 167.78 122.672C161.422 131.163 155.487 133.71 155.487 133.71L154.215 134.135L147.856 127.342L149.976 124.37C149.976 124.37 149.976 121.399 151.672 120.974C153.367 120.549 153.367 121.823 153.791 120.125C154.215 118.426 152.096 119.7 154.215 118.002C156.335 116.303 154.639 115.454 154.639 115.454L153.156 84.8865Z" fill="#FF6F00"/>
<path opacity="0.2" d="M112.884 92.5278L108.221 111.208L113.731 118.001L111.188 109.51L112.884 92.5278Z" fill="black"/>
<path opacity="0.2" d="M135.631 59.6546L132.244 65.314C130.116 64.5752 129.938 59.6294 130.061 56.3688C132.579 56.3476 135.631 59.6546 135.631 59.6546Z" fill="black"/>
<path d="M277.14 167.796C277.14 167.796 281.665 174.984 280.05 176.93C278.434 178.876 292.175 178.925 292.175 178.925C292.175 178.925 290.11 168.468 290.718 166.062L277.14 167.796Z" fill="#FFB9B9"/>
<path d="M284.373 170.402C292.21 170.402 298.563 164.039 298.563 156.19C298.563 148.342 292.21 141.979 284.373 141.979C276.536 141.979 270.183 148.342 270.183 156.19C270.183 164.039 276.536 170.402 284.373 170.402Z" fill="#090814"/>
<path d="M317.747 233.217V241.642L326.159 239.887L325.458 233.92L317.747 233.217Z" fill="#FFB9B9"/>
<path d="M347.539 234.622L371.022 238.483L365.064 247.26C365.064 247.26 348.59 241.642 344.385 241.642C340.179 241.642 347.539 234.622 347.539 234.622Z" fill="#FFB9B9"/>
<path d="M294.263 217.772C294.263 217.772 311.789 197.413 317.396 198.466C323.004 199.519 325.458 205.837 325.458 205.837L328.612 237.079C328.612 237.079 317.396 238.132 317.396 237.079C317.396 236.026 315.293 213.56 315.293 213.56C315.293 213.56 298.82 250.069 290.057 225.846L294.263 217.772Z" fill="#D6D6E3"/>
<path d="M265.873 231.463C265.873 231.463 266.225 249.853 276.738 250.906C287.251 251.959 298.82 243.046 298.82 243.046L317.747 233.965C317.747 233.965 340.178 245.854 346.838 242.695C346.838 242.695 353.848 235.324 349.291 233.217C344.735 231.111 348.939 233.217 348.939 233.217L321.951 219.177C321.951 219.177 316.693 217.773 307.581 221.634C298.468 225.495 286.2 227.25 286.2 227.25L265.873 231.463Z" fill="#D6D6E3"/>
<path d="M283.398 171.436C289.205 171.436 293.913 166.722 293.913 160.906C293.913 155.09 289.205 150.375 283.398 150.375C277.591 150.375 272.883 155.09 272.883 160.906C272.883 166.722 277.591 171.436 283.398 171.436Z" fill="#FFB9B9"/>
<path d="M298.469 190.392L297.769 205.135C297.769 205.135 298.121 224.442 294.965 225.846C293.37 226.555 290.166 227.98 287.204 229.539C284.982 230.704 282.897 231.939 281.733 233.003C281.425 233.266 281.159 233.575 280.945 233.92C279.543 236.377 270.43 236.026 268.327 234.273C266.224 232.519 267.626 236.379 265.873 237.081C264.177 237.762 261.825 232.195 263.266 223.882C263.311 223.605 263.364 223.324 263.42 223.04C265.031 214.983 262.501 195.688 262.891 188.232C262.913 187.662 262.973 187.095 263.069 186.533C264.121 180.916 277.538 169.489 280.048 174.356C283.139 180.365 290.24 174.875 291.46 172.141C298.469 171.788 300.923 180.215 300.923 180.215L298.469 190.392Z" fill="#FF6F00"/>
<path d="M326.859 238.483C326.859 238.483 321.251 240.59 319.499 240.238C317.747 239.887 315.994 241.291 315.994 243.397C315.994 245.504 313.891 250.418 317.045 250.769C320.2 251.12 333.168 250.416 335.972 251.471C335.972 251.471 348.59 251.824 347.539 246.557C346.488 241.29 341.23 241.642 341.23 241.642C341.23 241.642 326.859 240.941 326.859 238.483Z" fill="#090814"/>
<path d="M367.868 239.536C367.868 239.536 368.569 237.43 369.621 237.43C370.672 237.43 379.084 238.834 380.135 238.483C381.187 238.132 393.454 237.43 391.351 243.397C389.249 249.364 382.238 250.066 382.238 250.066C382.238 250.066 369.62 248.662 367.867 249.013C366.115 249.364 359.806 249.013 360.857 247.258C361.909 245.503 368.569 242.344 367.868 239.536Z" fill="#090814"/>
<path d="M335.965 189.116L337.888 197.06C337.91 197.149 337.906 197.241 337.879 197.328L329.155 224.627C329.12 224.735 329.05 224.828 328.955 224.89C328.86 224.953 328.747 224.981 328.634 224.97C328.521 224.958 328.416 224.909 328.335 224.829C328.254 224.749 328.203 224.644 328.19 224.532L326.982 213.897C326.974 213.826 326.981 213.755 327.003 213.687L335.009 189.079C335.042 188.976 335.108 188.887 335.197 188.825C335.285 188.764 335.391 188.733 335.499 188.737C335.607 188.741 335.71 188.78 335.794 188.849C335.877 188.917 335.936 189.011 335.962 189.116L335.965 189.116Z" fill="#080712"/>
<path d="M335.256 189.787L337.031 196.602L329.338 221.495L327.562 213.79L335.256 189.787Z" fill="white"/>
<path d="M296.494 226.829C296.79 227.718 327.267 226.533 327.561 226.237C327.819 225.865 328.037 225.468 328.212 225.051C328.49 224.459 328.744 223.866 328.744 223.866L327.561 214.27L297.38 213.198C297.38 213.198 296.625 221.329 296.474 225.051C296.421 225.643 296.428 226.239 296.494 226.829Z" fill="#090814"/>
<path opacity="0.1" d="M323.717 215.568L324.308 223.866H310.993V215.568H323.717Z" fill="black"/>
<path opacity="0.1" d="M306.556 218.236L306.635 218.22L306.26 221.791H298.862V218.236H306.556Z" fill="black"/>
<path opacity="0.1" d="M296.494 226.829C296.79 227.718 327.267 226.532 327.561 226.236C327.819 225.865 328.037 225.468 328.212 225.051H296.472C296.42 225.643 296.427 226.238 296.494 226.829Z" fill="black"/>
<path d="M286.724 144.615C288.908 144.615 290.679 142.842 290.679 140.654C290.679 138.467 288.908 136.694 286.724 136.694C284.54 136.694 282.769 138.467 282.769 140.654C282.769 142.842 284.54 144.615 286.724 144.615Z" fill="#090814"/>
<path d="M285.534 144.965C285.534 144.965 281.494 151.696 272.099 154.216C262.704 156.735 272.022 170.875 272.022 170.875C272.022 170.875 268.634 165.731 273.521 160.288C278.409 154.845 286.273 151.12 285.534 144.965Z" fill="#090814"/>
<path opacity="0.1" d="M287.205 229.539C286.339 231.178 285.323 232.88 285.151 233.568C285.035 234.035 283.753 233.765 281.734 233.003C277.686 231.469 270.669 227.955 264.121 224.441C263.819 224.281 263.533 224.093 263.265 223.88C263.311 223.602 263.363 223.321 263.419 223.037C265.03 214.981 262.501 195.685 262.89 188.229L265.873 187.232L271.832 192.849V216.719C271.832 216.719 287.254 225.143 288.305 225.846C288.842 226.204 288.102 227.836 287.205 229.539Z" fill="black"/>
<path d="M300.222 210.401L309.685 215.315C309.685 215.315 315.293 209.348 318.799 213.911C322.304 218.475 308.634 219.879 308.634 219.879C308.634 219.879 296.717 217.07 296.367 213.209C296.016 209.348 300.222 210.401 300.222 210.401Z" fill="#FFB9B9"/>
<path d="M284.45 223.387L290.058 224.791C290.058 224.791 296.367 217.068 303.026 219.877C309.686 222.685 294.613 228.303 294.613 228.303C294.613 228.303 286.551 232.516 283.396 229.005C280.242 225.495 284.45 223.387 284.45 223.387Z" fill="#FFB9B9"/>
<path d="M296.717 177.053C297.069 177.406 300.922 180.212 300.922 180.212C300.922 180.212 301.974 193.551 300.57 196.36C299.166 199.168 298.116 199.168 299.168 200.572C300.22 201.976 301.622 200.925 300.219 203.38C298.817 205.835 297.415 205.486 298.467 206.539C299.518 207.592 299.168 207.943 299.168 207.943L303.373 211.453C303.373 211.453 300.793 215.57 297.527 215.267C294.26 214.964 291.456 199.167 291.456 199.167L296.717 177.053Z" fill="#FF6F00"/>
<path d="M265.873 185.478L262.719 186.531C262.719 186.531 254.307 217.421 264.121 222.687C273.934 227.953 284.8 233.218 285.151 231.814C285.502 230.411 289.356 224.794 288.305 224.092C287.254 223.39 271.832 214.965 271.832 214.965V191.095L265.873 185.478Z" fill="#FF6F00"/>
<path opacity="0.1" d="M270.605 198.291L269.904 215.141L288.481 223.915L271.306 215.141L270.605 198.291Z" fill="black"/>
<path d="M376.167 131.756V139.595C376.167 139.667 376.138 139.736 376.087 139.788C376.036 139.839 375.966 139.868 375.894 139.868H375.702V180.703C375.701 181.833 375.253 182.917 374.455 183.716C373.658 184.515 372.576 184.964 371.447 184.964H345.97C345.411 184.964 344.858 184.853 344.342 184.639C343.826 184.425 343.357 184.111 342.962 183.716C342.567 183.32 342.254 182.85 342.04 182.333C341.827 181.817 341.717 181.263 341.717 180.703V141.298H341.576C341.525 141.298 341.476 141.278 341.44 141.242C341.404 141.206 341.384 141.157 341.383 141.106V136.647C341.383 136.596 341.404 136.547 341.44 136.511C341.476 136.474 341.525 136.454 341.576 136.454H341.717V134.774H341.575C341.521 134.774 341.47 134.753 341.432 134.715C341.395 134.677 341.373 134.626 341.373 134.572V130.172C341.373 130.118 341.395 130.067 341.432 130.029C341.47 129.991 341.521 129.97 341.575 129.97H341.717V127.671H341.573C341.525 127.671 341.48 127.652 341.446 127.619C341.413 127.585 341.394 127.54 341.394 127.492V125.091C341.394 125.043 341.413 124.998 341.446 124.964C341.48 124.93 341.525 124.911 341.573 124.911H341.717V120.049C341.717 118.919 342.165 117.835 342.963 117.037C343.76 116.238 344.842 115.789 345.97 115.789H371.447C372.576 115.789 373.657 116.238 374.455 117.037C375.253 117.835 375.701 118.919 375.702 120.049V131.48H375.896C375.968 131.48 376.038 131.509 376.089 131.56C376.14 131.611 376.169 131.681 376.169 131.753L376.167 131.756Z" fill="#090814"/>
<path d="M359.756 117.735H355.974C355.708 117.735 355.492 117.951 355.492 118.218C355.492 118.484 355.708 118.701 355.974 118.701H359.756C360.022 118.701 360.238 118.484 360.238 118.218C360.238 117.951 360.022 117.735 359.756 117.735Z" fill="#E6E8EC"/>
<path d="M361.502 118.766C361.804 118.766 362.049 118.521 362.049 118.219C362.049 117.916 361.804 117.671 361.502 117.671C361.2 117.671 360.955 117.916 360.955 118.219C360.955 118.521 361.2 118.766 361.502 118.766Z" fill="#E6E8EC"/>
<path d="M374.555 119.817V181.013C374.539 181.757 374.229 182.465 373.693 182.98C373.156 183.495 372.437 183.776 371.694 183.761H345.845C345.092 183.765 344.367 183.477 343.821 182.958C343.557 182.707 343.347 182.406 343.203 182.071C343.06 181.737 342.985 181.377 342.984 181.013V119.817C343 119.072 343.31 118.364 343.846 117.849C344.383 117.333 345.102 117.052 345.845 117.067H349.714V117.544C349.726 118.157 349.982 118.74 350.423 119.164C350.865 119.589 351.457 119.82 352.069 119.808H365.216C365.828 119.821 366.42 119.589 366.862 119.165C367.303 118.74 367.559 118.157 367.572 117.544V117.067H371.694C372.438 117.052 373.157 117.333 373.693 117.849C374.23 118.364 374.54 119.072 374.555 119.817Z" fill="white"/>
<path d="M347.379 157.795H370.26C370.385 157.795 370.509 157.82 370.625 157.868C370.74 157.916 370.845 157.986 370.934 158.075C371.022 158.163 371.093 158.268 371.14 158.384C371.188 158.5 371.213 158.624 371.213 158.75V160.064C371.213 160.317 371.112 160.559 370.933 160.738C370.755 160.917 370.512 161.017 370.26 161.017H347.379C347.127 161.017 346.885 160.917 346.706 160.738C346.527 160.559 346.427 160.317 346.426 160.064V158.753C346.426 158.627 346.45 158.503 346.498 158.387C346.546 158.27 346.616 158.165 346.704 158.076C346.793 157.987 346.898 157.916 347.014 157.868C347.13 157.82 347.254 157.795 347.379 157.795Z" fill="#E6E6E6"/>
<path d="M347.379 163.524H370.26C370.385 163.524 370.509 163.549 370.625 163.597C370.74 163.645 370.845 163.715 370.934 163.804C371.022 163.892 371.093 163.997 371.14 164.113C371.188 164.229 371.213 164.353 371.213 164.479V165.793C371.213 166.046 371.112 166.288 370.933 166.467C370.755 166.646 370.512 166.746 370.26 166.746H347.379C347.127 166.746 346.885 166.646 346.706 166.467C346.527 166.288 346.427 166.046 346.426 165.793V164.482C346.426 164.356 346.45 164.232 346.498 164.116C346.546 163.999 346.616 163.894 346.704 163.805C346.793 163.716 346.898 163.645 347.014 163.597C347.13 163.549 347.254 163.524 347.379 163.524Z" fill="#E6E6E6"/>
<path d="M347.379 169.252H370.26C370.385 169.252 370.509 169.277 370.625 169.325C370.74 169.373 370.845 169.443 370.934 169.532C371.022 169.621 371.093 169.726 371.14 169.842C371.188 169.958 371.213 170.082 371.213 170.207V171.522C371.213 171.775 371.112 172.017 370.933 172.196C370.755 172.374 370.512 172.475 370.26 172.475H347.379C347.127 172.475 346.885 172.374 346.706 172.196C346.527 172.017 346.427 171.775 346.426 171.522V170.211C346.426 170.085 346.45 169.96 346.498 169.844C346.546 169.728 346.616 169.622 346.704 169.533C346.793 169.444 346.898 169.374 347.014 169.325C347.13 169.277 347.254 169.252 347.379 169.252Z" fill="#E6E6E6"/>
<path d="M368.472 129.032C369.789 129.032 370.856 127.963 370.856 126.645C370.856 125.327 369.789 124.258 368.472 124.258C367.156 124.258 366.089 125.327 366.089 126.645C366.089 127.963 367.156 129.032 368.472 129.032Z" fill="#FF6F00"/>
<path d="M347.329 134.642H370.21C370.335 134.642 370.459 134.666 370.575 134.714C370.69 134.762 370.795 134.833 370.884 134.921C370.972 135.01 371.043 135.115 371.091 135.231C371.138 135.347 371.163 135.471 371.163 135.596V150.157C371.163 150.282 371.138 150.406 371.091 150.522C371.043 150.638 370.972 150.743 370.884 150.832C370.795 150.921 370.69 150.991 370.575 151.039C370.459 151.087 370.335 151.112 370.21 151.112H347.329C347.077 151.112 346.834 151.011 346.656 150.832C346.477 150.653 346.376 150.41 346.376 150.157V135.596C346.376 135.343 346.477 135.1 346.656 134.921C346.834 134.742 347.077 134.642 347.329 134.642Z" fill="#E6E6E6"/>
<path d="M355.478 143.902C356.201 146.581 358.681 148.238 358.681 148.238C358.681 148.238 359.986 145.553 359.263 142.874C358.539 140.195 356.06 138.538 356.06 138.538C356.06 138.538 354.755 141.222 355.478 143.902Z" fill="#090814"/>
<path d="M356.541 143.326C358.527 145.262 358.77 148.238 358.77 148.238C358.77 148.238 355.793 148.076 353.807 146.14C351.821 144.204 351.578 141.227 351.578 141.227C351.578 141.227 354.555 141.39 356.541 143.326Z" fill="#FF6F00"/>
<path d="M362.062 143.902C361.338 146.581 358.859 148.238 358.859 148.238C358.859 148.238 357.554 145.553 358.277 142.874C359.001 140.195 361.48 138.538 361.48 138.538C361.48 138.538 362.786 141.222 362.062 143.902Z" fill="#090814"/>
<path d="M360.998 143.326C359.012 145.262 358.77 148.238 358.77 148.238C358.77 148.238 361.747 148.076 363.733 146.14C365.719 144.204 365.961 141.227 365.961 141.227C365.961 141.227 362.984 141.39 360.998 143.326Z" fill="#FF6F00"/>
<path d="M425.464 250.922H242.187V252.052H425.464V250.922Z" fill="#CCCCCC"/>
<path d="M594.768 248.399H469.596C469.415 248.399 469.268 248.176 469.268 247.901C469.268 247.626 469.415 247.403 469.596 247.403H594.768C594.949 247.403 595.096 247.626 595.096 247.901C595.096 248.176 594.95 248.399 594.768 248.399Z" fill="#F2F2F2"/>
<path d="M504.364 79.344C504.542 79.3982 504.732 79.3889 504.904 79.318C505.076 79.247 505.217 79.1186 505.305 78.9547C506.06 77.7611 504.669 76.2216 504.97 74.8404C505.212 73.734 506.467 73.0755 506.724 71.9736C506.976 70.9015 506.205 69.6933 506.724 68.7236C507.131 67.9637 508.147 67.7655 508.998 67.8971C509.849 68.0287 510.656 68.4049 511.516 68.4574C512.661 68.5275 513.752 68.0222 514.872 67.7721C515.992 67.5219 517.358 67.6208 518.017 68.5607C518.863 69.771 518.005 71.4507 518.299 72.8974C518.533 74.0452 519.492 74.9957 519.513 76.1671C519.521 76.5837 518.428 76.2483 518.486 76.6603C518.544 77.0723 518.028 76.7107 518.44 76.6603C518.609 76.6189 518.76 76.5249 518.872 76.3918C518.983 76.2587 519.05 76.0935 519.061 75.92C519.112 75.5766 519.755 75.4622 519.748 75.1132C519.73 74.3003 521.198 74.8485 521.44 74.0724C521.995 72.2629 521.881 70.3135 521.118 68.5814C520.725 67.8739 520.411 67.125 520.182 66.3485C519.967 65.2709 520.306 64.1136 519.95 63.0738C519.471 61.6724 517.886 60.9558 516.413 60.8126C514.941 60.6694 513.446 60.9271 511.983 60.7118C510.673 60.5202 509.402 59.9508 508.08 60.0335C506.493 60.1344 505.112 61.1566 504.013 62.3063C502.913 63.456 501.979 64.7772 500.73 65.763C500.348 66.0267 499.995 66.331 499.678 66.6707C499.392 67.0846 499.197 67.5547 499.107 68.0498C499.017 68.5449 499.033 69.0537 499.154 69.542C499.331 70.5309 499.716 71.4739 499.879 72.4668C500.03 73.3982 499.985 74.3502 500.05 75.2907C500.066 76.2405 500.353 77.166 500.878 77.9573C501.105 78.2656 501.399 78.518 501.737 78.6953C502.076 78.8726 502.451 78.9701 502.833 78.9804C503.098 78.9865 503.322 78.7485 503.589 78.8105C503.922 78.8902 504.067 79.2079 504.364 79.344Z" fill="#2F2E41"/>
<path d="M493.038 147.781L494.019 153.819L495.983 151.151L494.861 147.079L493.038 147.781Z" fill="#9F616A"/>
<path d="M494.3 102.146L492.755 106.225C492.755 106.225 491.216 127 491.216 128.544C491.216 130.089 492.338 149.888 492.758 150.732C492.758 150.732 494.581 148.064 496.964 148.486C499.348 148.907 498.367 141.465 498.367 141.465L500.61 123.07L500.189 113.803L494.3 102.146Z" fill="#FF6F00"/>
<path opacity="0.1" d="M494.3 102.146L492.755 106.225C492.755 106.225 491.216 127 491.216 128.544C491.216 130.089 492.338 149.888 492.758 150.732C492.758 150.732 494.581 148.064 496.964 148.486C499.348 148.907 498.367 141.465 498.367 141.465L500.61 123.07L500.189 113.803L494.3 102.146Z" fill="#090814"/>
<path d="M503.833 79.6795C503.833 79.6795 508.46 91.4748 505.797 93.7213C503.134 95.9679 520.659 89.9302 520.659 89.9302L520.239 88.3857C520.239 88.3857 514.49 86.1391 517.294 79.68C520.098 73.2208 503.833 79.6795 503.833 79.6795Z" fill="#9F616A"/>
<path opacity="0.1" d="M503.833 79.6795C503.833 79.6795 508.46 91.4748 505.797 93.7213C503.134 95.9679 520.659 89.9302 520.659 89.9302L520.239 88.3857C520.239 88.3857 514.49 86.1391 517.294 79.68C520.098 73.2208 503.833 79.6795 503.833 79.6795Z" fill="black"/>
<path d="M496.544 237.228C496.544 237.228 494.58 236.666 493.459 238.071C492.339 239.475 488.132 242.985 488.132 242.985C488.132 242.985 480 242.143 478.878 246.213C477.757 250.283 491.637 250.285 495.002 249.302C498.367 248.319 499.068 249.302 499.068 249.302C499.068 249.302 509.443 250.145 509.443 248.459C509.443 246.774 508.462 241.017 508.462 241.017L496.544 237.228Z" fill="#090814"/>
<path d="M529.493 246.636L527.67 252.253C527.67 252.253 522.202 259.835 525.286 261.38C528.371 262.925 539.307 264.469 539.307 260.397V252.674C539.307 252.674 538.185 247.198 537.064 246.636C535.943 246.074 529.493 246.636 529.493 246.636Z" fill="#090814"/>
<path d="M498.529 145.727C498.529 145.727 492.618 150.87 492.758 151.573C492.898 152.275 495.702 197.349 495.702 197.349L497.245 226.556C497.245 226.556 495.281 233.436 496.263 234.981C497.246 236.525 494.861 236.948 494.861 236.948C494.861 236.948 504.956 246.075 509.161 242.142L513.088 191.17L523.885 228.241C523.885 228.241 525.708 247.9 527.812 247.9C529.917 247.9 538.468 248.321 538.327 247.198C538.187 246.075 538.748 237.509 537.767 232.454C536.785 227.399 530.195 187.38 530.195 187.38C530.195 187.38 529.629 153.072 531.102 149.865C532.574 146.659 530.333 143.289 530.333 143.289L520.519 139.498L508.741 140.902L498.529 145.727Z" fill="#090814"/>
<path d="M510.424 64.7944C512.365 64.7944 514.262 65.3709 515.876 66.451C517.49 67.531 518.748 69.0661 519.491 70.8622C520.234 72.6582 520.428 74.6346 520.05 76.5412C519.671 78.4479 518.736 80.1993 517.364 81.574C515.991 82.9486 514.242 83.8847 512.338 84.264C510.435 84.6433 508.461 84.4486 506.668 83.7047C504.875 82.9607 503.342 81.7009 502.263 80.0845C501.185 78.4681 500.609 76.5677 500.609 74.6236C500.609 72.0168 501.643 69.5167 503.484 67.6733C505.324 65.83 507.821 64.7944 510.424 64.7944Z" fill="#9F616A"/>
<path d="M534.259 95.8272C533.774 94.4534 532.957 93.2213 531.881 92.2412C530.804 91.2611 529.502 90.5634 528.09 90.2106C525.262 89.4982 522.496 88.5591 519.818 87.4023C519.818 87.4023 509.863 92.1768 507.901 92.1768C505.938 92.1768 505.937 90.9131 505.937 90.9131C505.937 90.9131 500.89 96.2487 498.226 96.813C495.562 97.3773 491.636 103.974 493.04 107.625C493.992 109.966 495.371 112.108 497.105 113.944C497.105 113.944 496.544 133.602 498.367 137.253C498.367 137.253 493.88 145.819 498.087 146.381C502.293 146.942 518.417 144.976 521.221 146.942C524.025 148.909 529.213 146.521 529.914 149.189C530.614 151.857 532.157 152.416 532.157 152.416C532.157 152.416 534.54 148.625 533.138 146.378C531.736 144.131 534.259 95.8272 534.259 95.8272Z" fill="#FF6F00"/>
<path d="M523.884 148.625L521.64 150.029C521.64 150.029 524.024 158.314 525.005 158.594C525.986 158.875 528.297 151.51 528.297 151.51L523.884 148.625Z" fill="#9F616A"/>
<path d="M502.681 78.3615C502.859 78.4151 503.05 78.4056 503.221 78.3346C503.392 78.2637 503.534 78.1357 503.622 77.9722C504.378 76.7786 502.986 75.2391 503.288 73.8579C503.529 72.7515 504.784 72.093 505.041 70.9911C505.293 69.9191 504.522 68.7108 505.041 67.7411C505.448 66.9812 506.465 66.783 507.316 66.9146C508.167 67.0462 508.974 67.4224 509.833 67.4749C510.978 67.5449 512.07 67.0397 513.19 66.7896C514.309 66.5394 515.675 66.6383 516.334 67.5782C517.18 68.7885 516.322 70.4682 516.616 71.9149C516.851 73.0627 519.515 73.8685 519.756 73.0924C520.312 71.283 520.198 69.3335 519.435 67.6014C519.042 66.8939 518.728 66.1451 518.499 65.3685C518.284 64.2909 518.622 63.1336 518.267 62.0938C517.788 60.6924 516.203 59.9759 514.73 59.8327C513.258 59.6894 511.763 59.9471 510.299 59.7318C508.99 59.5402 507.719 58.9709 506.397 59.0536C504.81 59.1544 503.429 60.1766 502.329 61.3263C501.229 62.476 500.296 63.7972 499.046 64.7831C498.664 65.0467 498.311 65.3511 497.994 65.6908C497.708 66.1044 497.513 66.5745 497.422 67.0696C497.331 67.5648 497.347 68.0735 497.468 68.5621C497.646 69.5509 498.031 70.4939 498.194 71.4868C498.345 72.4182 498.299 73.3703 498.365 74.3107C498.381 75.2605 498.668 76.186 499.192 76.9773C499.419 77.2855 499.713 77.5379 500.052 77.7152C500.391 77.8925 500.765 77.9901 501.148 78.0005C501.412 78.0065 501.636 77.7685 501.903 77.8305C502.239 77.9077 502.385 78.2254 502.681 78.3615Z" fill="#090814"/>
<path opacity="0.1" d="M528.721 98.2835L533.278 95.8262C533.278 95.8262 544.355 122.225 541.69 129.526C539.026 136.828 528.792 151.853 528.792 151.853C528.792 151.853 520.659 150.168 521.501 148.483C522.342 146.798 527.81 135.986 528.231 134.582C528.651 133.178 531.453 124.051 530.194 123.067C528.936 122.084 526.479 99.2658 526.479 99.2658L528.721 98.2835Z" fill="black"/>
<path d="M528.651 94.2827L534.259 95.8273C534.259 95.8273 545.336 122.226 542.672 129.528C540.007 136.829 529.773 151.854 529.773 151.854C529.773 151.854 521.64 150.169 522.482 148.484C523.323 146.799 528.791 135.987 529.212 134.583C529.632 133.179 532.434 124.052 531.175 123.068C529.917 122.085 523.885 97.7929 523.885 97.7929L528.651 94.2827Z" fill="#FF6F00"/>
<path d="M569.305 45.697C569.305 35.4699 584.278 27.1797 602.748 27.1797C621.218 27.1797 636.192 35.4704 636.192 45.697" stroke="#3F3D56" stroke-width="2" stroke-miterlimit="10"/>
<path d="M613.264 34.3088H586.056C580.675 25.2255 580.675 16.1425 586.056 7.05957H613.264C605.74 16.1428 605.74 25.2259 613.264 34.3088Z" fill="#E6E6E6"/>
<path d="M605.274 10.3042H589.943V12.2507H605.274V10.3042Z" fill="#FF6F00"/>
<path d="M636.192 45.6963C636.192 56.4186 621.218 65.1107 602.748 65.1107C584.278 65.1107 569.305 56.4186 569.305 45.6963" stroke="#3F3D56" stroke-width="2" stroke-miterlimit="10"/>
<path d="M630.108 65.3862C622.633 69.4239 612.879 71.8676 602.208 71.8676C591.978 71.8676 582.59 69.6216 575.245 65.8774" stroke="#3F3D56" stroke-width="2" stroke-miterlimit="10"/>
<path d="M619.45 22.1665C633.676 25.9117 643.808 34.1489 644.75 43.8501" stroke="#3F3D56" stroke-width="2" stroke-miterlimit="10"/>
<path d="M561.648 37.5451C564.045 33.1327 568.424 29.2494 574.162 26.2661" stroke="#3F3D56" stroke-width="2" stroke-miterlimit="10"/>
<path d="M591.06 84.778H618.268C623.649 75.6948 623.649 66.6117 618.268 57.5288H591.06C598.584 66.612 598.584 75.6951 591.06 84.778Z" fill="#E6E6E6"/>
<path d="M615.394 62.7197H600.062V64.6662H615.394V62.7197Z" fill="#FF6F00"/>
<path d="M579.526 66.2834H552.318C546.937 57.2001 546.937 48.1171 552.318 39.0342H579.526C572.002 48.1171 572.002 57.2001 579.526 66.2834Z" fill="#E6E6E6"/>
<path d="M570.673 42.2778H555.341V44.2243H570.673V42.2778Z" fill="#FF6F00"/>
<path d="M624.008 53.7311H651.217C656.598 44.6479 656.598 35.5648 651.217 26.4819H624.008C631.532 35.5648 631.532 44.6479 624.008 53.7311Z" fill="#E6E6E6"/>
<path d="M648.018 29.1846H632.686V31.131H648.018V29.1846Z" fill="#FF6F00"/>
</svg>
