<svg width="96" height="82" viewBox="0 0 96 82" fill="none" xmlns="http://www.w3.org/2000/svg">
<path d="M2.10786 48.81C1.64582 49.2714 1.27928 49.8194 1.0292 50.4226C0.779114 51.0258 0.650391 51.6724 0.650391 52.3254C0.650391 52.9784 0.779114 53.625 1.0292 54.2282C1.27928 54.8314 1.64582 55.3794 2.10786 55.8408L25.9549 79.6925C27.8983 81.6313 31.0424 81.6313 32.9858 79.6925L93.8937 18.78C94.8254 17.8483 95.3489 16.5846 95.3489 15.2669C95.3489 13.9492 94.8254 12.6855 93.8937 11.7538L84.452 2.31208C83.5203 1.38035 82.2566 0.856911 80.9389 0.856911C79.6212 0.856911 78.3575 1.38035 77.4258 2.31208L29.4704 50.2675L18.5758 39.3683C17.6432 38.4363 16.3788 37.9128 15.0604 37.9128C13.7419 37.9128 12.4775 38.4363 11.5449 39.3683L2.10786 48.81Z" fill="#78EB7B"/>
<path d="M29.4712 64.6821L88.1516 6.00625L84.4437 2.29833C83.5112 1.36632 82.2467 0.842766 80.9283 0.842766C79.6099 0.842766 78.3454 1.36632 77.4129 2.29833L29.4712 50.2675L18.5766 39.3683C18.1152 38.9063 17.5672 38.5398 16.964 38.2897C16.3608 38.0396 15.7142 37.9109 15.0612 37.9109C14.4082 37.9109 13.7616 38.0396 13.1584 38.2897C12.5552 38.5398 12.0072 38.9063 11.5458 39.3683L7.83789 43.0763L29.4712 64.6821Z" fill="#C9F7CA"/>
<path d="M2.10786 48.81C1.64582 49.2714 1.27928 49.8194 1.0292 50.4226C0.779114 51.0258 0.650391 51.6724 0.650391 52.3254C0.650391 52.9784 0.779114 53.625 1.0292 54.2282C1.27928 54.8314 1.64582 55.3794 2.10786 55.8408L25.9549 79.6925C27.8983 81.6313 31.0424 81.6313 32.9858 79.6925L93.8937 18.78C94.8254 17.8483 95.3489 16.5846 95.3489 15.2669C95.3489 13.9492 94.8254 12.6855 93.8937 11.7538L84.452 2.31208C83.5203 1.38035 82.2566 0.856911 80.9389 0.856911C79.6212 0.856911 78.3575 1.38035 77.4258 2.31208L29.4704 50.2675L18.5758 39.3683C17.6432 38.4363 16.3788 37.9128 15.0604 37.9128C13.7419 37.9128 12.4775 38.4363 11.5449 39.3683L2.10786 48.81Z" stroke="#191919" stroke-linecap="round" stroke-linejoin="round"/>
</svg>
