<svg width="51" height="51" viewBox="0 0 51 51" fill="none" xmlns="http://www.w3.org/2000/svg">
<path d="M32.9152 25.5L46.5383 11.8769C47.9386 10.4766 47.9386 8.20632 46.5383 6.80601L44.194 4.4617C42.7937 3.06139 40.5234 3.06139 39.1231 4.4617L25.5 18.0848L11.877 4.4617C10.4766 3.06139 8.20635 3.06139 6.80604 4.4617L4.46173 6.80601C3.06142 8.20632 3.06142 10.4766 4.46173 11.8769L18.0848 25.5L4.46173 39.1231C3.06142 40.5234 3.06142 42.7937 4.46173 44.194L6.80604 46.5383C8.20635 47.9386 10.4766 47.9386 11.877 46.5383L25.5 32.9152L39.1231 46.5383C40.5234 47.9386 42.7937 47.9386 44.194 46.5383L46.5383 44.194C47.9386 42.7937 47.9386 40.5234 46.5383 39.1231L32.9152 25.5Z" fill="#FF473E"/>
</svg>
