<svg width="57" height="57" viewBox="0 0 57 57" fill="none" xmlns="http://www.w3.org/2000/svg">
<path d="M53.8333 46.0687C53.1731 44.5439 52.4147 42.8893 50.6667 42.8893H49.0833C50.8313 42.8893 52.25 41.4659 52.25 39.71V12.6793C52.2508 12.2626 52.1696 11.8499 52.0109 11.4646C51.8522 11.0793 51.6192 10.7291 51.3251 10.4338C51.0311 10.1386 50.6818 9.90418 50.2971 9.74395C49.9125 9.58373 49.5 9.50083 49.0833 9.5H7.91667C6.16867 9.5 4.75 10.9234 4.75 12.6793V39.71C4.75 41.4659 6.16867 42.8893 7.91667 42.8893H6.33333C4.58533 42.8893 3.69392 44.479 3.16667 46.0687L0 53.8191C0 55.5766 1.41867 57 3.16667 57H53.8333C55.5813 57 57 55.5766 57 53.8207L53.8333 46.0687Z" fill="#CCD6DD"/>
<path d="M0.0117188 53.9521L0.0212188 54.0423L0.290385 55.138C0.540619 55.6914 0.944731 56.1612 1.45454 56.4914C1.96435 56.8215 2.55835 56.9981 3.16572 57H53.8324C54.6499 56.9973 55.4346 56.6786 56.0225 56.1105C56.6104 55.5424 56.9557 54.769 56.9864 53.9521H0.0117188Z" fill="#9AAAB4"/>
<path d="M49.0827 38.1188C49.0827 38.9975 48.3749 39.7084 47.4994 39.7084H9.49935C8.62535 39.7084 7.91602 38.9975 7.91602 38.1188V14.2706C7.91602 13.3918 8.62535 12.6809 9.49935 12.6809H47.4994C48.3749 12.6809 49.0827 13.3934 49.0827 14.2706V38.1188Z" fill="#5DADEC"/>
<path d="M52.1012 49.1498L50.8978 45.7061C50.5194 44.9778 49.8924 44.3808 49.0168 44.3808H8.09082C7.21682 44.3808 6.65632 45.0268 6.26049 46.0212L5.17116 49.1514C4.82441 50.0951 5.88049 50.7411 6.75449 50.7411H18.753C18.753 50.7411 20.2366 50.6667 20.4994 49.7784C20.8034 48.7524 21.1565 47.2071 21.2325 46.9348C21.3497 46.5168 21.8468 46.094 22.5878 46.094H36.1697C36.9613 46.094 37.3508 46.4946 37.4537 46.9902C37.5202 47.3132 37.9477 48.7968 38.1472 49.8117C38.323 50.7158 40.0805 50.7395 40.0805 50.7395H50.521C51.3934 50.7395 52.4479 49.9938 52.1012 49.1498Z" fill="#AEBBC1"/>
<path d="M35.4264 52.4289H23.1065C22.5128 52.4289 22.2547 51.8858 22.3402 51.3602C22.4257 50.8361 22.9086 48.5213 22.9466 48.2521C22.983 47.9813 23.3804 47.6583 23.7763 47.6583H34.8834C35.3536 47.6583 35.6592 47.9164 35.7542 48.4326C35.8476 48.9503 36.2324 51.0308 36.2624 51.5058C36.2925 51.9808 35.9949 52.4289 35.4264 52.4289Z" fill="#9AAAB4"/>
</svg>
