<svg width="80" height="80" viewBox="0 0 80 80" fill="none" xmlns="http://www.w3.org/2000/svg">
<rect width="80" height="80" fill="#D9D9D9"/>
<path d="M45.9375 48.6562V44.125H47.75V48.6562H45.9375ZM45.9375 51.375V49.5625H47.75V51.375H45.9375ZM26 27.8125H55V48.1182L53.1875 44.4932V29.625H27.8125V39.2114L34.1562 32.8818L42.2559 40.9814L41.4062 42.6807L34.1562 35.4307L27.8125 41.7886V47.75H38.8716L37.9653 49.5625H26V27.8125ZM48.6562 33.25C48.4108 33.25 48.1984 33.1603 48.019 32.981C47.8397 32.8016 47.75 32.5892 47.75 32.3438C47.75 32.0983 47.8397 31.8859 48.019 31.7065C48.1984 31.5272 48.4108 31.4375 48.6562 31.4375C48.9017 31.4375 49.1141 31.5272 49.2935 31.7065C49.4728 31.8859 49.5625 32.0983 49.5625 32.3438C49.5625 32.5892 49.4728 32.8016 49.2935 32.981C49.1141 33.1603 48.9017 33.25 48.6562 33.25ZM38.6875 53.1875L46.8438 36.875L55 53.1875H38.6875ZM41.2505 51.6016H52.437L46.8438 40.415L41.2505 51.6016Z" fill="#383838"/>
</svg>
