<svg width="960" height="250" viewBox="0 0 960 250" fill="none" xmlns="http://www.w3.org/2000/svg">
<rect width="960" height="250" fill="#C5C5C5"/>
<path d="M408.778 154.5C408.661 154.141 408.507 153.82 408.315 153.536C408.127 153.248 407.901 153.003 407.638 152.801C407.379 152.598 407.085 152.444 406.754 152.337C406.424 152.231 406.062 152.178 405.668 152.178C405.021 152.178 404.434 152.344 403.904 152.678C403.375 153.012 402.955 153.504 402.642 154.154C402.33 154.804 402.173 155.601 402.173 156.545C402.173 157.49 402.331 158.287 402.647 158.937C402.963 159.587 403.391 160.079 403.931 160.413C404.471 160.746 405.078 160.913 405.753 160.913C406.378 160.913 406.928 160.78 407.404 160.514C407.884 160.244 408.256 159.864 408.523 159.374C408.793 158.88 408.928 158.3 408.928 157.632L409.332 157.717H406.051V156.545H410.206V157.717C410.206 158.616 410.014 159.397 409.631 160.061C409.251 160.725 408.725 161.24 408.054 161.606C407.386 161.968 406.619 162.149 405.753 162.149C404.787 162.149 403.938 161.922 403.207 161.467C402.479 161.013 401.911 160.366 401.502 159.528C401.097 158.69 400.895 157.696 400.895 156.545C400.895 155.683 401.01 154.907 401.241 154.218C401.475 153.525 401.806 152.936 402.232 152.449C402.658 151.963 403.162 151.59 403.745 151.331C404.327 151.071 404.968 150.942 405.668 150.942C406.243 150.942 406.779 151.029 407.276 151.203C407.777 151.373 408.223 151.616 408.613 151.933C409.007 152.245 409.336 152.62 409.599 153.056C409.862 153.49 410.043 153.971 410.142 154.5H408.778ZM414.706 162.192C414.187 162.192 413.717 162.094 413.294 161.899C412.872 161.7 412.536 161.414 412.287 161.041C412.039 160.665 411.915 160.21 411.915 159.678C411.915 159.209 412.007 158.829 412.191 158.538C412.376 158.243 412.623 158.012 412.932 157.845C413.241 157.678 413.582 157.554 413.955 157.472C414.331 157.387 414.709 157.32 415.089 157.27C415.586 157.206 415.989 157.158 416.298 157.126C416.611 157.091 416.838 157.032 416.98 156.95C417.126 156.869 417.199 156.727 417.199 156.524V156.482C417.199 155.956 417.055 155.548 416.767 155.256C416.483 154.965 416.052 154.82 415.473 154.82C414.873 154.82 414.402 154.951 414.061 155.214C413.72 155.477 413.481 155.757 413.342 156.055L412.149 155.629C412.362 155.132 412.646 154.745 413.001 154.468C413.36 154.187 413.75 153.992 414.173 153.882C414.599 153.768 415.018 153.712 415.43 153.712C415.693 153.712 415.995 153.744 416.336 153.808C416.68 153.868 417.012 153.994 417.332 154.186C417.655 154.377 417.923 154.667 418.136 155.054C418.349 155.441 418.456 155.96 418.456 156.609V162H417.199V160.892H417.135C417.049 161.07 416.907 161.26 416.709 161.462C416.51 161.664 416.245 161.837 415.915 161.979C415.585 162.121 415.182 162.192 414.706 162.192ZM414.897 161.062C415.395 161.062 415.814 160.965 416.155 160.77C416.499 160.574 416.758 160.322 416.932 160.013C417.11 159.704 417.199 159.379 417.199 159.038V157.888C417.145 157.952 417.028 158.01 416.847 158.064C416.669 158.113 416.464 158.158 416.229 158.197C415.998 158.232 415.773 158.264 415.553 158.293C415.336 158.317 415.16 158.339 415.025 158.357C414.699 158.399 414.393 158.468 414.109 158.564C413.829 158.657 413.601 158.797 413.427 158.985C413.257 159.17 413.172 159.422 413.172 159.741C413.172 160.178 413.333 160.509 413.656 160.732C413.983 160.952 414.397 161.062 414.897 161.062ZM424.053 165.239C423.445 165.239 422.923 165.161 422.487 165.004C422.05 164.852 421.686 164.649 421.395 164.397C421.107 164.148 420.878 163.882 420.708 163.598L421.709 162.895C421.823 163.044 421.966 163.214 422.14 163.406C422.314 163.602 422.552 163.77 422.854 163.912C423.16 164.058 423.559 164.131 424.053 164.131C424.713 164.131 425.258 163.971 425.688 163.651C426.118 163.332 426.333 162.831 426.333 162.149V160.487H426.226C426.134 160.636 426.002 160.821 425.832 161.041C425.665 161.258 425.423 161.451 425.107 161.622C424.795 161.789 424.372 161.872 423.84 161.872C423.179 161.872 422.586 161.716 422.061 161.403C421.539 161.091 421.125 160.636 420.819 160.04C420.518 159.443 420.367 158.719 420.367 157.866C420.367 157.028 420.514 156.299 420.809 155.677C421.104 155.052 421.514 154.569 422.039 154.228C422.565 153.884 423.172 153.712 423.861 153.712C424.394 153.712 424.816 153.8 425.129 153.978C425.445 154.152 425.686 154.351 425.853 154.575C426.024 154.795 426.155 154.976 426.247 155.118H426.375V153.818H427.59V162.234C427.59 162.938 427.43 163.509 427.11 163.95C426.794 164.393 426.368 164.718 425.832 164.924C425.299 165.134 424.706 165.239 424.053 165.239ZM424.01 160.743C424.514 160.743 424.941 160.627 425.289 160.397C425.637 160.166 425.901 159.834 426.082 159.401C426.263 158.967 426.354 158.449 426.354 157.845C426.354 157.256 426.265 156.735 426.088 156.284C425.91 155.833 425.647 155.48 425.299 155.224C424.951 154.969 424.521 154.841 424.01 154.841C423.477 154.841 423.034 154.976 422.678 155.246C422.327 155.516 422.062 155.878 421.885 156.332C421.711 156.787 421.624 157.291 421.624 157.845C421.624 158.413 421.713 158.916 421.89 159.353C422.071 159.786 422.338 160.127 422.689 160.375C423.044 160.62 423.485 160.743 424.01 160.743ZM432.298 162.192C431.78 162.192 431.309 162.094 430.887 161.899C430.464 161.7 430.129 161.414 429.88 161.041C429.632 160.665 429.507 160.21 429.507 159.678C429.507 159.209 429.6 158.829 429.784 158.538C429.969 158.243 430.216 158.012 430.525 157.845C430.834 157.678 431.175 157.554 431.547 157.472C431.924 157.387 432.302 157.32 432.682 157.27C433.179 157.206 433.582 157.158 433.891 157.126C434.204 157.091 434.431 157.032 434.573 156.95C434.719 156.869 434.791 156.727 434.791 156.524V156.482C434.791 155.956 434.648 155.548 434.36 155.256C434.076 154.965 433.644 154.82 433.066 154.82C432.465 154.82 431.995 154.951 431.654 155.214C431.313 155.477 431.073 155.757 430.935 156.055L429.742 155.629C429.955 155.132 430.239 154.745 430.594 154.468C430.953 154.187 431.343 153.992 431.766 153.882C432.192 153.768 432.611 153.712 433.023 153.712C433.286 153.712 433.588 153.744 433.928 153.808C434.273 153.868 434.605 153.994 434.925 154.186C435.248 154.377 435.516 154.667 435.729 155.054C435.942 155.441 436.048 155.96 436.048 156.609V162H434.791V160.892H434.727C434.642 161.07 434.5 161.26 434.301 161.462C434.102 161.664 433.838 161.837 433.508 161.979C433.177 162.121 432.774 162.192 432.298 162.192ZM432.49 161.062C432.987 161.062 433.406 160.965 433.747 160.77C434.092 160.574 434.351 160.322 434.525 160.013C434.703 159.704 434.791 159.379 434.791 159.038V157.888C434.738 157.952 434.621 158.01 434.44 158.064C434.262 158.113 434.056 158.158 433.822 158.197C433.591 158.232 433.366 158.264 433.145 158.293C432.929 158.317 432.753 158.339 432.618 158.357C432.291 158.399 431.986 158.468 431.702 158.564C431.421 158.657 431.194 158.797 431.02 158.985C430.85 159.17 430.764 159.422 430.764 159.741C430.764 160.178 430.926 160.509 431.249 160.732C431.576 160.952 431.99 161.062 432.49 161.062ZM439.6 151.091V162H438.343V151.091H439.6ZM446.121 162V153.818H447.336V155.097H447.442C447.613 154.66 447.888 154.321 448.268 154.079C448.648 153.834 449.104 153.712 449.637 153.712C450.177 153.712 450.626 153.834 450.985 154.079C451.347 154.321 451.629 154.66 451.831 155.097H451.917C452.126 154.674 452.441 154.338 452.86 154.09C453.279 153.838 453.781 153.712 454.367 153.712C455.099 153.712 455.697 153.941 456.162 154.399C456.627 154.853 456.86 155.562 456.86 156.524V162H455.603V156.524C455.603 155.92 455.438 155.489 455.107 155.23C454.777 154.971 454.388 154.841 453.941 154.841C453.366 154.841 452.92 155.015 452.604 155.363C452.288 155.707 452.13 156.144 452.13 156.673V162H450.851V156.396C450.851 155.931 450.7 155.556 450.399 155.272C450.097 154.985 449.708 154.841 449.232 154.841C448.905 154.841 448.6 154.928 448.316 155.102C448.035 155.276 447.808 155.517 447.634 155.826C447.464 156.132 447.378 156.485 447.378 156.886V162H446.121ZM462.589 162.17C461.8 162.17 461.12 161.996 460.549 161.648C459.98 161.297 459.542 160.807 459.233 160.178C458.928 159.546 458.775 158.811 458.775 157.973C458.775 157.135 458.928 156.396 459.233 155.757C459.542 155.114 459.972 154.614 460.522 154.255C461.076 153.893 461.722 153.712 462.461 153.712C462.887 153.712 463.308 153.783 463.723 153.925C464.139 154.067 464.517 154.298 464.858 154.617C465.199 154.933 465.471 155.352 465.673 155.874C465.875 156.396 465.977 157.039 465.977 157.803V158.335H459.67V157.249H464.698C464.698 156.787 464.606 156.375 464.421 156.013C464.24 155.651 463.981 155.365 463.643 155.155C463.31 154.946 462.915 154.841 462.461 154.841C461.96 154.841 461.527 154.965 461.161 155.214C460.799 155.459 460.52 155.778 460.325 156.173C460.13 156.567 460.032 156.989 460.032 157.44V158.165C460.032 158.783 460.138 159.306 460.352 159.736C460.568 160.162 460.868 160.487 461.252 160.711C461.635 160.931 462.081 161.041 462.589 161.041C462.919 161.041 463.217 160.995 463.484 160.903C463.754 160.807 463.986 160.665 464.181 160.477C464.377 160.285 464.528 160.047 464.634 159.763L465.849 160.104C465.721 160.516 465.506 160.878 465.204 161.19C464.902 161.499 464.529 161.741 464.086 161.915C463.642 162.085 463.143 162.17 462.589 162.17ZM467.889 162V153.818H469.103V155.097H469.21C469.38 154.66 469.656 154.321 470.036 154.079C470.415 153.834 470.872 153.712 471.404 153.712C471.944 153.712 472.393 153.834 472.752 154.079C473.114 154.321 473.397 154.66 473.599 155.097H473.684C473.894 154.674 474.208 154.338 474.627 154.09C475.046 153.838 475.549 153.712 476.135 153.712C476.866 153.712 477.464 153.941 477.93 154.399C478.395 154.853 478.627 155.562 478.627 156.524V162H477.37V156.524C477.37 155.92 477.205 155.489 476.875 155.23C476.545 154.971 476.156 154.841 475.708 154.841C475.133 154.841 474.688 155.015 474.371 155.363C474.055 155.707 473.897 156.144 473.897 156.673V162H472.619V156.396C472.619 155.931 472.468 155.556 472.166 155.272C471.864 154.985 471.475 154.841 471 154.841C470.673 154.841 470.368 154.928 470.083 155.102C469.803 155.276 469.576 155.517 469.402 155.826C469.231 156.132 469.146 156.485 469.146 156.886V162H467.889ZM486.082 158.655V153.818H487.339V162H486.082V160.615H485.997C485.805 161.031 485.507 161.384 485.102 161.675C484.697 161.963 484.186 162.107 483.568 162.107C483.057 162.107 482.602 161.995 482.204 161.771C481.807 161.544 481.494 161.203 481.267 160.748C481.04 160.29 480.926 159.713 480.926 159.017V153.818H482.183V158.932C482.183 159.528 482.35 160.004 482.684 160.359C483.021 160.714 483.451 160.892 483.973 160.892C484.285 160.892 484.603 160.812 484.926 160.652C485.253 160.493 485.526 160.248 485.747 159.917C485.97 159.587 486.082 159.166 486.082 158.655ZM492.049 162.192C491.531 162.192 491.06 162.094 490.638 161.899C490.215 161.7 489.88 161.414 489.631 161.041C489.383 160.665 489.258 160.21 489.258 159.678C489.258 159.209 489.351 158.829 489.535 158.538C489.72 158.243 489.967 158.012 490.276 157.845C490.585 157.678 490.926 157.554 491.298 157.472C491.675 157.387 492.053 157.32 492.433 157.27C492.93 157.206 493.333 157.158 493.642 157.126C493.955 157.091 494.182 157.032 494.324 156.95C494.47 156.869 494.542 156.727 494.542 156.524V156.482C494.542 155.956 494.399 155.548 494.111 155.256C493.827 154.965 493.395 154.82 492.816 154.82C492.216 154.82 491.746 154.951 491.405 155.214C491.064 155.477 490.824 155.757 490.686 156.055L489.493 155.629C489.706 155.132 489.99 154.745 490.345 154.468C490.704 154.187 491.094 153.992 491.517 153.882C491.943 153.768 492.362 153.712 492.774 153.712C493.037 153.712 493.339 153.744 493.679 153.808C494.024 153.868 494.356 153.994 494.676 154.186C494.999 154.377 495.267 154.667 495.48 155.054C495.693 155.441 495.799 155.96 495.799 156.609V162H494.542V160.892H494.478C494.393 161.07 494.251 161.26 494.052 161.462C493.853 161.664 493.589 161.837 493.259 161.979C492.928 162.121 492.525 162.192 492.049 162.192ZM492.241 161.062C492.738 161.062 493.157 160.965 493.498 160.77C493.843 160.574 494.102 160.322 494.276 160.013C494.454 159.704 494.542 159.379 494.542 159.038V157.888C494.489 157.952 494.372 158.01 494.191 158.064C494.013 158.113 493.807 158.158 493.573 158.197C493.342 158.232 493.117 158.264 492.896 158.293C492.68 158.317 492.504 158.339 492.369 158.357C492.042 158.399 491.737 158.468 491.453 158.564C491.172 158.657 490.945 158.797 490.771 158.985C490.601 159.17 490.515 159.422 490.515 159.741C490.515 160.178 490.677 160.509 491 160.732C491.327 160.952 491.741 161.062 492.241 161.062ZM501.652 153.818V154.884H497.412V153.818H501.652ZM498.648 151.858H499.905V159.656C499.905 160.011 499.956 160.278 500.059 160.455C500.166 160.629 500.301 160.746 500.464 160.807C500.631 160.864 500.807 160.892 500.992 160.892C501.13 160.892 501.244 160.885 501.333 160.871C501.421 160.853 501.492 160.839 501.546 160.828L501.801 161.957C501.716 161.989 501.597 162.021 501.444 162.053C501.292 162.089 501.098 162.107 500.864 162.107C500.509 162.107 500.161 162.03 499.82 161.877C499.482 161.725 499.202 161.492 498.978 161.18C498.758 160.867 498.648 160.473 498.648 159.997V151.858ZM511.064 165.239C510.457 165.239 509.935 165.161 509.498 165.004C509.062 164.852 508.698 164.649 508.406 164.397C508.119 164.148 507.89 163.882 507.719 163.598L508.721 162.895C508.834 163.044 508.978 163.214 509.152 163.406C509.326 163.602 509.564 163.77 509.866 163.912C510.171 164.058 510.571 164.131 511.064 164.131C511.725 164.131 512.27 163.971 512.7 163.651C513.129 163.332 513.344 162.831 513.344 162.149V160.487H513.238C513.145 160.636 513.014 160.821 512.844 161.041C512.677 161.258 512.435 161.451 512.119 161.622C511.807 161.789 511.384 161.872 510.851 161.872C510.191 161.872 509.598 161.716 509.072 161.403C508.55 161.091 508.137 160.636 507.831 160.04C507.529 159.443 507.378 158.719 507.378 157.866C507.378 157.028 507.526 156.299 507.82 155.677C508.115 155.052 508.525 154.569 509.051 154.228C509.577 153.884 510.184 153.712 510.873 153.712C511.405 153.712 511.828 153.8 512.14 153.978C512.456 154.152 512.698 154.351 512.865 154.575C513.035 154.795 513.167 154.976 513.259 155.118H513.387V153.818H514.601V162.234C514.601 162.938 514.442 163.509 514.122 163.95C513.806 164.393 513.38 164.718 512.844 164.924C512.311 165.134 511.718 165.239 511.064 165.239ZM511.022 160.743C511.526 160.743 511.952 160.627 512.3 160.397C512.648 160.166 512.913 159.834 513.094 159.401C513.275 158.967 513.366 158.449 513.366 157.845C513.366 157.256 513.277 156.735 513.099 156.284C512.922 155.833 512.659 155.48 512.311 155.224C511.963 154.969 511.533 154.841 511.022 154.841C510.489 154.841 510.045 154.976 509.69 155.246C509.339 155.516 509.074 155.878 508.896 156.332C508.722 156.787 508.635 157.291 508.635 157.845C508.635 158.413 508.724 158.916 508.902 159.353C509.083 159.786 509.349 160.127 509.701 160.375C510.056 160.62 510.496 160.743 511.022 160.743ZM519.31 162.192C518.792 162.192 518.321 162.094 517.899 161.899C517.476 161.7 517.14 161.414 516.892 161.041C516.643 160.665 516.519 160.21 516.519 159.678C516.519 159.209 516.611 158.829 516.796 158.538C516.981 158.243 517.227 158.012 517.536 157.845C517.845 157.678 518.186 157.554 518.559 157.472C518.936 157.387 519.314 157.32 519.694 157.27C520.191 157.206 520.594 157.158 520.903 157.126C521.215 157.091 521.443 157.032 521.585 156.95C521.73 156.869 521.803 156.727 521.803 156.524V156.482C521.803 155.956 521.659 155.548 521.372 155.256C521.088 154.965 520.656 154.82 520.077 154.82C519.477 154.82 519.007 154.951 518.666 155.214C518.325 155.477 518.085 155.757 517.947 156.055L516.753 155.629C516.966 155.132 517.251 154.745 517.606 154.468C517.964 154.187 518.355 153.992 518.778 153.882C519.204 153.768 519.623 153.712 520.035 153.712C520.297 153.712 520.599 153.744 520.94 153.808C521.285 153.868 521.617 153.994 521.936 154.186C522.259 154.377 522.528 154.667 522.741 155.054C522.954 155.441 523.06 155.96 523.06 156.609V162H521.803V160.892H521.739C521.654 161.07 521.512 161.26 521.313 161.462C521.114 161.664 520.85 161.837 520.519 161.979C520.189 162.121 519.786 162.192 519.31 162.192ZM519.502 161.062C519.999 161.062 520.418 160.965 520.759 160.77C521.104 160.574 521.363 160.322 521.537 160.013C521.714 159.704 521.803 159.379 521.803 159.038V157.888C521.75 157.952 521.633 158.01 521.452 158.064C521.274 158.113 521.068 158.158 520.834 158.197C520.603 158.232 520.377 158.264 520.157 158.293C519.941 158.317 519.765 158.339 519.63 158.357C519.303 158.399 518.998 158.468 518.714 158.564C518.433 158.657 518.206 158.797 518.032 158.985C517.861 159.17 517.776 159.422 517.776 159.741C517.776 160.178 517.938 160.509 518.261 160.732C518.588 160.952 519.001 161.062 519.502 161.062ZM525.355 162V153.818H526.569V155.097H526.676C526.846 154.66 527.121 154.321 527.501 154.079C527.881 153.834 528.338 153.712 528.87 153.712C529.41 153.712 529.859 153.834 530.218 154.079C530.58 154.321 530.862 154.66 531.065 155.097H531.15C531.36 154.674 531.674 154.338 532.093 154.09C532.512 153.838 533.014 153.712 533.6 153.712C534.332 153.712 534.93 153.941 535.396 154.399C535.861 154.853 536.093 155.562 536.093 156.524V162H534.836V156.524C534.836 155.92 534.671 155.489 534.341 155.23C534.011 154.971 533.622 154.841 533.174 154.841C532.599 154.841 532.153 155.015 531.837 155.363C531.521 155.707 531.363 156.144 531.363 156.673V162H530.085V156.396C530.085 155.931 529.934 155.556 529.632 155.272C529.33 154.985 528.941 154.841 528.465 154.841C528.139 154.841 527.833 154.928 527.549 155.102C527.269 155.276 527.041 155.517 526.867 155.826C526.697 156.132 526.612 156.485 526.612 156.886V162H525.355ZM538.562 162V151.091H539.819V155.118H539.926C540.018 154.976 540.146 154.795 540.309 154.575C540.476 154.351 540.714 154.152 541.023 153.978C541.336 153.8 541.758 153.712 542.291 153.712C542.98 153.712 543.587 153.884 544.113 154.228C544.638 154.573 545.048 155.061 545.343 155.693C545.638 156.325 545.785 157.071 545.785 157.93C545.785 158.797 545.638 159.548 545.343 160.184C545.048 160.816 544.64 161.306 544.118 161.654C543.596 161.998 542.994 162.17 542.312 162.17C541.787 162.17 541.366 162.083 541.05 161.909C540.734 161.732 540.491 161.531 540.32 161.308C540.15 161.08 540.018 160.892 539.926 160.743H539.777V162H538.562ZM539.798 157.909C539.798 158.527 539.889 159.072 540.07 159.544C540.251 160.013 540.515 160.381 540.863 160.647C541.211 160.91 541.638 161.041 542.142 161.041C542.667 161.041 543.106 160.903 543.457 160.626C543.813 160.345 544.079 159.969 544.256 159.496C544.438 159.021 544.528 158.491 544.528 157.909C544.528 157.334 544.439 156.815 544.262 156.354C544.088 155.888 543.823 155.521 543.468 155.251C543.117 154.978 542.674 154.841 542.142 154.841C541.63 154.841 541.201 154.971 540.853 155.23C540.505 155.485 540.242 155.844 540.064 156.306C539.887 156.764 539.798 157.298 539.798 157.909ZM550.116 162.192C549.597 162.192 549.127 162.094 548.704 161.899C548.282 161.7 547.946 161.414 547.698 161.041C547.449 160.665 547.325 160.21 547.325 159.678C547.325 159.209 547.417 158.829 547.602 158.538C547.786 158.243 548.033 158.012 548.342 157.845C548.651 157.678 548.992 157.554 549.365 157.472C549.741 157.387 550.119 157.32 550.499 157.27C550.997 157.206 551.4 157.158 551.709 157.126C552.021 157.091 552.248 157.032 552.39 156.95C552.536 156.869 552.609 156.727 552.609 156.524V156.482C552.609 155.956 552.465 155.548 552.177 155.256C551.893 154.965 551.462 154.82 550.883 154.82C550.283 154.82 549.812 154.951 549.471 155.214C549.13 155.477 548.891 155.757 548.752 156.055L547.559 155.629C547.772 155.132 548.056 154.745 548.411 154.468C548.77 154.187 549.161 153.992 549.583 153.882C550.009 153.768 550.428 153.712 550.84 153.712C551.103 153.712 551.405 153.744 551.746 153.808C552.09 153.868 552.422 153.994 552.742 154.186C553.065 154.377 553.333 154.667 553.546 155.054C553.759 155.441 553.866 155.96 553.866 156.609V162H552.609V160.892H552.545C552.46 161.07 552.318 161.26 552.119 161.462C551.92 161.664 551.655 161.837 551.325 161.979C550.995 162.121 550.592 162.192 550.116 162.192ZM550.308 161.062C550.805 161.062 551.224 160.965 551.565 160.77C551.909 160.574 552.168 160.322 552.342 160.013C552.52 159.704 552.609 159.379 552.609 159.038V157.888C552.555 157.952 552.438 158.01 552.257 158.064C552.08 158.113 551.874 158.158 551.639 158.197C551.408 158.232 551.183 158.264 550.963 158.293C550.746 158.317 550.57 158.339 550.435 158.357C550.109 158.399 549.803 158.468 549.519 158.564C549.239 158.657 549.011 158.797 548.837 158.985C548.667 159.17 548.582 159.422 548.582 159.741C548.582 160.178 548.743 160.509 549.066 160.732C549.393 160.952 549.807 161.062 550.308 161.062ZM556.16 162V153.818H557.375V155.054H557.46C557.609 154.649 557.879 154.321 558.27 154.069C558.66 153.816 559.101 153.69 559.591 153.69C559.683 153.69 559.798 153.692 559.937 153.696C560.075 153.699 560.18 153.705 560.251 153.712V154.99C560.209 154.979 560.111 154.963 559.958 154.942C559.809 154.917 559.651 154.905 559.484 154.905C559.086 154.905 558.731 154.988 558.419 155.155C558.11 155.319 557.865 155.546 557.684 155.837C557.506 156.125 557.417 156.453 557.417 156.822V162H556.16Z" fill="#383838"/>
<path d="M491.125 127.188V118.75H494.5V127.188H491.125ZM491.125 132.25V128.875H494.5V132.25H491.125ZM454 88.375H508V126.186L504.625 119.436V91.75H457.375V109.601L469.188 97.8145L484.27 112.896L482.688 116.061L469.188 102.561L457.375 114.399V125.5H477.968L476.28 128.875H454V88.375ZM496.188 98.5C495.73 98.5 495.335 98.333 495.001 97.999C494.667 97.665 494.5 97.2695 494.5 96.8125C494.5 96.3555 494.667 95.96 495.001 95.626C495.335 95.292 495.73 95.125 496.188 95.125C496.645 95.125 497.04 95.292 497.374 95.626C497.708 95.96 497.875 96.3555 497.875 96.8125C497.875 97.2695 497.708 97.665 497.374 97.999C497.04 98.333 496.645 98.5 496.188 98.5ZM477.625 135.625L492.812 105.25L508 135.625H477.625ZM482.397 132.672H503.228L492.812 111.842L482.397 132.672Z" fill="#383838"/>
</svg>
