<svg width="25" height="25" viewBox="0 0 25 25" fill="none" xmlns="http://www.w3.org/2000/svg">
<path d="M12.5 24.2441C18.9872 24.2441 24.2461 18.9861 24.2461 12.5C24.2461 6.01389 18.9872 0.755859 12.5 0.755859C6.01281 0.755859 0.753906 6.01389 0.753906 12.5C0.753906 18.9861 6.01281 24.2441 12.5 24.2441Z" fill="#FDFBF9"/>
<path d="M17.3203 12.3555C16.8652 12.291 16.4609 12.6543 16.1055 12.8828C15.3379 13.373 14.6602 13.9414 14.0059 14.582C13.6016 14.9785 13.0547 15.5059 12.9102 16.0762C12.8437 16.3398 12.9258 16.6426 12.9785 16.9004C13.0703 17.3496 13.2109 17.7871 13.3516 18.2227C13.5104 18.7122 13.6942 19.1933 13.9023 19.6641C14.0059 19.9004 14.1191 20.1348 14.2305 20.3691C14.334 20.5879 14.4023 20.7168 14.6562 20.75C14.9414 20.7871 15.2266 20.7441 15.5098 20.7324C15.9277 20.7168 16.3457 20.6758 16.7578 20.6055C17.3027 20.5137 17.8516 20.4141 18.373 20.2285C18.8555 20.0547 19.4082 19.7851 19.6875 19.3418C20.2871 18.3887 20.6504 17.3066 20.8496 16.2031C20.9082 15.8848 20.9648 15.5605 20.9629 15.2344C20.9648 14.9473 20.9902 14.6523 20.7832 14.4316C20.4121 14.0332 19.9727 13.7031 19.5176 13.4043C18.8437 12.9668 18.1387 12.4726 17.3203 12.3555ZM4.06836 7.74999C3.64453 7.9746 3.3125 8.50976 3.06445 8.90234C2.56836 9.68359 2.16797 10.5859 1.98047 11.4941C1.83789 12.1894 2.14844 12.8672 2.38086 13.5098C2.60742 14.1289 3.00195 14.6191 3.43359 15.1055C3.54297 15.2305 3.68164 15.3242 3.79101 15.4473C3.91601 15.5859 4.07422 15.7168 4.23828 15.8086C4.35547 15.875 4.46094 15.7852 4.58008 15.7578C4.89453 15.6816 5.1289 15.5215 5.41406 15.3711C5.66992 15.2344 5.93359 15.1191 6.1914 14.9824C6.74414 14.6855 7.40234 14.4414 7.88476 14.0332C7.94726 13.9805 8.0293 13.9141 8.04687 13.8301C8.0918 13.6211 8.0293 13.3496 8.01953 13.1367C8.00781 12.8379 8.0039 12.541 8.00195 12.2422C8 11.5664 8.02539 10.8906 8.02539 10.2148C8.03125 9.83788 8.07812 9.46288 8.06055 9.08593C8.0293 8.52538 7.42383 8.32617 6.96875 8.21288C6.33008 8.05468 5.6875 7.83788 5.03515 7.75781C4.76562 7.72851 4.32031 7.61718 4.06836 7.74999ZM20.6484 6.06445C20.709 5.64062 20.4258 5.13085 20.2207 4.75195C19.8145 3.99609 19.2324 3.2539 18.5059 2.66406C17.9512 2.21289 17.1348 2.02929 16.375 1.95312C15.0137 1.81445 13.9746 1.89843 13.6875 1.94335C13.3984 1.98828 13.127 2.07617 12.9727 2.26757C12.668 2.63867 12.6152 3.16992 12.5508 3.62695C12.457 4.27929 12.375 4.95117 12.4609 5.60742C12.4746 5.7246 12.4922 5.8789 12.5488 5.98242C12.6562 6.17382 12.8828 6.26953 13.1074 6.36913C14.2715 6.88281 16.4922 8.15429 16.8535 8.32617C17.3926 8.58593 17.9668 8.24023 18.3652 7.96093C18.918 7.57226 19.5332 7.20703 20.0215 6.76757C20.2227 6.58789 20.6113 6.31445 20.6484 6.06445ZM3.92773 20.5937C3.97461 20.666 4.01953 20.7207 4.0918 20.7754C4.20703 20.8633 4.3164 20.9531 4.42578 21.0488C5.38086 21.8867 6.5 22.5176 7.60937 23.123C7.94336 23.3066 8.26172 23.4941 8.60156 23.6641C8.96875 23.8457 9.34765 23.9687 9.74219 24.0781C10.0098 24.1523 10.2812 24.2246 10.5586 24.2519C10.8164 24.2773 11.0801 24.3379 11.3398 24.3418C11.4883 24.3437 11.625 24.3379 11.7695 24.3184C11.6992 24.2051 11.6367 24.0605 11.5762 23.9394C11.4805 23.75 11.3828 23.5586 11.2852 23.3711C11.1719 23.1543 11.084 22.9277 10.9687 22.7129C10.8789 22.5488 10.7617 22.3789 10.5996 22.2832C10.3828 22.1543 10.1758 22.0273 9.93945 21.9316C9.07617 21.5801 8.30273 21.084 7.5 20.6191C7.09375 20.3828 6.69531 20.1309 6.3125 19.8555C6.10742 19.709 5.9082 19.5566 5.6914 19.4258C5.64648 19.3965 5.60156 19.3613 5.54883 19.3535C5.50195 19.3457 5.42969 19.3476 5.38281 19.3535C5.33984 19.3594 5.28906 19.3672 5.24805 19.375C4.9668 19.4336 4.66211 19.5078 4.37109 19.5723C4.09375 19.6348 3.7832 19.6562 3.51758 19.7578C3.41406 19.7969 3.42578 19.8555 3.46679 19.9453C3.52929 20.0859 3.62109 20.2148 3.7168 20.332C3.78125 20.416 3.86133 20.4941 3.92773 20.5937Z" fill="#FF6F00"/>
<path d="M7.30663 9.43749C7.24049 9.43754 7.17569 9.41888 7.11971 9.38366C7.06372 9.34845 7.01884 9.29812 6.99025 9.23848C6.96166 9.17884 6.95051 9.11233 6.95811 9.04663C6.96571 8.98093 6.99174 8.91872 7.03319 8.86718C7.12889 8.74999 9.3828 5.98828 13.4141 5.36328C13.4594 5.35635 13.5058 5.35844 13.5504 5.36941C13.595 5.38039 13.6369 5.40004 13.6739 5.42724C13.7109 5.45445 13.7422 5.48867 13.766 5.52796C13.7898 5.56726 13.8056 5.61085 13.8125 5.65624C13.8194 5.70164 13.8173 5.74796 13.8064 5.79255C13.7954 5.83715 13.7757 5.87914 13.7485 5.91614C13.7213 5.95314 13.6871 5.98442 13.6478 6.00819C13.6085 6.03196 13.5649 6.04776 13.5195 6.05468C9.76757 6.63867 7.5996 9.28124 7.57811 9.30664C7.5078 9.39257 7.40819 9.43749 7.30663 9.43749ZM6.4746 21.6992C6.37304 21.6992 6.27147 21.6562 6.20311 21.5703C6.10741 21.4531 3.88671 18.6641 4.12694 14.5937C4.13866 14.4004 4.30272 14.2519 4.49608 14.2637C4.68944 14.2754 4.83593 14.4414 4.82421 14.6348C4.60155 18.4375 6.7246 21.1035 6.74608 21.1289C6.86913 21.2793 6.84374 21.5 6.6953 21.6211C6.63085 21.6719 6.55272 21.6992 6.4746 21.6992ZM9.11522 23.0742C8.93554 23.0742 8.78319 22.9375 8.76757 22.7539C8.75194 22.5605 8.89452 22.3906 9.08788 22.375C9.12108 22.373 12.5234 22.0527 15.1055 19.2676C15.169 19.1996 15.2569 19.1596 15.3499 19.1563C15.4429 19.153 15.5334 19.1867 15.6015 19.25C15.7441 19.3809 15.7519 19.6035 15.6191 19.7461C12.8457 22.7344 9.29491 23.0605 9.14647 23.0742C9.13475 23.0723 9.12499 23.0742 9.11522 23.0742ZM4.24999 9.01757C4.08593 9.01757 3.93944 8.90234 3.90819 8.73437C3.88866 8.63671 3.44725 6.32226 4.39843 3.58007C4.46288 3.39648 4.66014 3.29882 4.84374 3.36328C5.02538 3.42773 5.12304 3.62499 5.06054 3.80859C4.16991 6.37499 4.58983 8.57617 4.59569 8.5996C4.6328 8.78906 4.50975 8.9746 4.31835 9.01171C4.29686 9.01562 4.27343 9.01757 4.24999 9.01757ZM14.4277 3.27343C14.3555 3.27343 14.2812 3.24999 14.2207 3.20312C14.2031 3.1914 12.3808 1.86914 9.69139 1.57421C9.49999 1.55468 9.35936 1.38085 9.38085 1.18945C9.40038 0.996088 9.57421 0.85937 9.76561 0.878901C12.6523 1.19335 14.5547 2.58007 14.6348 2.63867C14.7891 2.7539 14.8223 2.97265 14.707 3.1289C14.6406 3.2246 14.5351 3.27343 14.4277 3.27343ZM23.2676 8.9707C23.166 8.9707 23.0644 8.92578 22.9941 8.83984C21.2871 6.72851 19.1973 5.91796 19.1777 5.91015C19.0909 5.87727 19.0206 5.81137 18.9822 5.72685C18.9437 5.64232 18.9403 5.54602 18.9726 5.45898C19.041 5.27734 19.2441 5.18749 19.4238 5.2539C19.5176 5.28906 21.7129 6.14062 23.5371 8.39843C23.6601 8.54882 23.6348 8.76953 23.4844 8.89062C23.4219 8.94531 23.3437 8.9707 23.2676 8.9707ZM17.0859 13.7051C17.0723 13.7051 17.0547 13.7031 17.041 13.7012C16.9954 13.6953 16.9514 13.6805 16.9116 13.6575C16.8718 13.6346 16.8368 13.604 16.8089 13.5675C16.7809 13.531 16.7605 13.4893 16.7487 13.4449C16.7369 13.4005 16.734 13.3541 16.7402 13.3086C17.1875 9.96093 16.748 7.48828 16.7422 7.46288C16.707 7.27343 16.832 7.08984 17.0234 7.05664C17.2148 7.01953 17.3965 7.14843 17.4316 7.33788C17.4492 7.44335 17.8965 9.94531 17.4336 13.4023C17.4101 13.5781 17.2598 13.7051 17.0859 13.7051ZM14.0469 16.5644C14.0351 16.5644 14.0273 16.5644 14.0156 16.5625C9.66405 16.1777 6.80077 13.7227 6.67968 13.6191C6.60978 13.5581 6.56687 13.4719 6.56028 13.3793C6.55369 13.2867 6.58397 13.1953 6.64452 13.125C6.77147 12.9785 6.99218 12.9629 7.13866 13.0898C7.16796 13.1133 9.96093 15.5019 14.0781 15.8652C14.1676 15.8737 14.2505 15.9163 14.3095 15.9841C14.3685 16.0519 14.3992 16.1399 14.3951 16.2297C14.3911 16.3195 14.3527 16.4044 14.2879 16.4667C14.2231 16.529 14.1368 16.564 14.0469 16.5644ZM1.54882 12.5508C1.25389 12.5508 0.931629 12.5137 0.630848 12.3984C0.544013 12.3656 0.473712 12.2997 0.43529 12.2151C0.396868 12.1306 0.393445 12.0343 0.42577 11.9473C0.496082 11.7676 0.695301 11.6758 0.878895 11.7422C1.52343 11.9883 2.38475 11.7363 2.39452 11.7344C2.57811 11.6797 2.77343 11.7832 2.82811 11.9707C2.88475 12.1543 2.77929 12.3496 2.59569 12.4062C2.56639 12.4141 2.10546 12.5508 1.54882 12.5508ZM20.6387 15.5391C20.5058 15.5391 20.3808 15.4629 20.3223 15.3359C20.2402 15.1621 20.3183 14.9531 20.4922 14.8711C20.5117 14.8613 22.5469 13.8984 24.0957 11.6797C24.2051 11.5195 24.4238 11.4805 24.582 11.5918C24.7402 11.7031 24.7793 11.9199 24.6699 12.0781C23.0098 14.459 20.8769 15.4629 20.7871 15.5059C20.7363 15.5273 20.6875 15.5391 20.6387 15.5391ZM20.6387 21.4512C20.5605 21.4512 20.4824 21.4258 20.416 21.375C19.6152 20.7441 18.8398 19.5977 18.8066 19.5508C18.6973 19.3867 18.7402 19.1641 18.9043 19.0527C19.0664 18.9434 19.291 18.9863 19.4004 19.1523C19.4082 19.1621 20.1465 20.2519 20.8594 20.8125C21.0137 20.9355 21.041 21.1602 20.9199 21.3164C20.8476 21.4023 20.7441 21.4512 20.6387 21.4512Z" fill="#FF6F00"/>
<path d="M12.5 24.9453C5.63672 24.9453 0.0546875 19.3633 0.0546875 12.5C0.0546875 5.63867 5.63672 0.0546875 12.5 0.0546875C19.3633 0.0546875 24.9453 5.63867 24.9453 12.498C24.9453 19.3633 19.3613 24.9453 12.5 24.9453ZM12.5 1.45508C6.41016 1.45508 1.45508 6.41016 1.45508 12.5C1.45508 18.5898 6.4082 23.5449 12.498 23.5449C18.5879 23.5449 23.543 18.5898 23.543 12.5C23.5449 6.41016 18.5879 1.45508 12.5 1.45508Z" fill="#FF6F00"/>
</svg>
