<svg width="104" height="25" viewBox="0 0 104 25" fill="none" xmlns="http://www.w3.org/2000/svg">
<path d="M12.5 24.2441C18.9872 24.2441 24.2461 18.9861 24.2461 12.5C24.2461 6.01389 18.9872 0.755859 12.5 0.755859C6.01281 0.755859 0.753906 6.01389 0.753906 12.5C0.753906 18.9861 6.01281 24.2441 12.5 24.2441Z" fill="#FDFBF9"/>
<path d="M17.3203 12.3556C16.8652 12.2912 16.4609 12.6544 16.1055 12.883C15.3379 13.3732 14.6602 13.9416 14.0059 14.5822C13.6016 14.9787 13.0547 15.506 12.9102 16.0763C12.8437 16.34 12.9258 16.6427 12.9785 16.9005C13.0703 17.3498 13.2109 17.7873 13.3516 18.2228C13.5104 18.7124 13.6942 19.1935 13.9023 19.6642C14.0059 19.9005 14.1191 20.1349 14.2305 20.3693C14.334 20.588 14.4023 20.7169 14.6562 20.7501C14.9414 20.7873 15.2266 20.7443 15.5098 20.7326C15.9277 20.7169 16.3457 20.6759 16.7578 20.6056C17.3027 20.5138 17.8516 20.4142 18.373 20.2287C18.8555 20.0548 19.4082 19.7853 19.6875 19.3419C20.2871 18.3888 20.6504 17.3068 20.8496 16.2033C20.9082 15.8849 20.9648 15.5607 20.9629 15.2345C20.9648 14.9474 20.9902 14.6525 20.7832 14.4318C20.4121 14.0333 19.9727 13.7033 19.5176 13.4044C18.8437 12.9669 18.1387 12.4728 17.3203 12.3556ZM4.06836 7.75015C3.64453 7.97476 3.3125 8.50991 3.06445 8.90249C2.56836 9.68374 2.16797 10.5861 1.98047 11.4943C1.83789 12.1896 2.14844 12.8673 2.38086 13.5099C2.60742 14.1291 3.00195 14.6193 3.43359 15.1056C3.54297 15.2306 3.68164 15.3244 3.79101 15.4474C3.91601 15.5861 4.07422 15.7169 4.23828 15.8087C4.35547 15.8751 4.46094 15.7853 4.58008 15.758C4.89453 15.6818 5.1289 15.5216 5.41406 15.3712C5.66992 15.2345 5.93359 15.1193 6.1914 14.9826C6.74414 14.6857 7.40234 14.4416 7.88476 14.0333C7.94726 13.9806 8.0293 13.9142 8.04687 13.8302C8.0918 13.6212 8.0293 13.3498 8.01953 13.1369C8.00781 12.838 8.0039 12.5412 8.00195 12.2423C8 11.5666 8.02539 10.8908 8.02539 10.215C8.03125 9.83804 8.07812 9.46304 8.06055 9.08608C8.0293 8.52554 7.42383 8.32632 6.96875 8.21304C6.33008 8.05483 5.6875 7.83804 5.03515 7.75796C4.76562 7.72866 4.32031 7.61733 4.06836 7.75015ZM20.6484 6.0646C20.709 5.64077 20.4258 5.13101 20.2207 4.7521C19.8145 3.99624 19.2324 3.25405 18.5059 2.66421C17.9512 2.21304 17.1348 2.02944 16.375 1.95327C15.0137 1.8146 13.9746 1.89858 13.6875 1.94351C13.3984 1.98843 13.127 2.07632 12.9727 2.26773C12.668 2.63882 12.6152 3.17007 12.5508 3.6271C12.457 4.27944 12.375 4.95132 12.4609 5.60757C12.4746 5.72476 12.4922 5.87905 12.5488 5.98257C12.6562 6.17397 12.8828 6.26968 13.1074 6.36929C14.2715 6.88296 16.4922 8.15444 16.8535 8.32632C17.3926 8.58608 17.9668 8.24038 18.3652 7.96108C18.918 7.57241 19.5332 7.20718 20.0215 6.76773C20.2227 6.58804 20.6113 6.3146 20.6484 6.0646ZM3.92773 20.5939C3.97461 20.6662 4.01953 20.7208 4.0918 20.7755C4.20703 20.8634 4.3164 20.9533 4.42578 21.049C5.38086 21.8869 6.5 22.5177 7.60937 23.1232C7.94336 23.3068 8.26172 23.4943 8.60156 23.6642C8.96875 23.8458 9.34765 23.9689 9.74219 24.0783C10.0098 24.1525 10.2812 24.2248 10.5586 24.2521C10.8164 24.2775 11.0801 24.338 11.3398 24.3419C11.4883 24.3439 11.625 24.338 11.7695 24.3185C11.6992 24.2052 11.6367 24.0607 11.5762 23.9396C11.4805 23.7501 11.3828 23.5587 11.2852 23.3712C11.1719 23.1544 11.084 22.9279 10.9687 22.713C10.8789 22.549 10.7617 22.3791 10.5996 22.2833C10.3828 22.1544 10.1758 22.0275 9.93945 21.9318C9.07617 21.5802 8.30273 21.0841 7.5 20.6193C7.09375 20.383 6.69531 20.131 6.3125 19.8556C6.10742 19.7091 5.9082 19.5568 5.6914 19.4259C5.64648 19.3966 5.60156 19.3615 5.54883 19.3537C5.50195 19.3458 5.42969 19.3478 5.38281 19.3537C5.33984 19.3595 5.28906 19.3673 5.24805 19.3751C4.9668 19.4337 4.66211 19.508 4.37109 19.5724C4.09375 19.6349 3.7832 19.6564 3.51758 19.758C3.41406 19.797 3.42578 19.8556 3.46679 19.9455C3.52929 20.0861 3.62109 20.215 3.7168 20.3322C3.78125 20.4162 3.86133 20.4943 3.92773 20.5939Z" fill="#FF6F00"/>
<path d="M7.30664 9.4374C7.24051 9.43745 7.1757 9.41879 7.11972 9.38357C7.06374 9.34836 7.01886 9.29802 6.99026 9.23839C6.96167 9.17875 6.95053 9.11224 6.95813 9.04654C6.96573 8.98084 6.99176 8.91863 7.03321 8.86709C7.12891 8.7499 9.38282 5.98818 13.4141 5.36318C13.4595 5.35626 13.5058 5.35834 13.5504 5.36932C13.595 5.38029 13.637 5.39995 13.674 5.42715C13.711 5.45435 13.7422 5.48858 13.766 5.52787C13.7898 5.56717 13.8056 5.61075 13.8125 5.65615C13.8194 5.70155 13.8173 5.74787 13.8064 5.79246C13.7954 5.83705 13.7757 5.87905 13.7485 5.91605C13.7213 5.95305 13.6871 5.98432 13.6478 6.00809C13.6085 6.03187 13.5649 6.04767 13.5195 6.05459C9.76758 6.63858 7.59961 9.28115 7.57813 9.30654C7.50782 9.39248 7.40821 9.4374 7.30664 9.4374ZM6.47461 21.6991C6.37305 21.6991 6.27149 21.6562 6.20313 21.5702C6.10743 21.453 3.88672 18.664 4.12696 14.5937C4.13868 14.4003 4.30274 14.2519 4.4961 14.2636C4.68946 14.2753 4.83594 14.4413 4.82422 14.6347C4.60157 18.4374 6.72461 21.1034 6.7461 21.1288C6.86914 21.2792 6.84375 21.4999 6.69532 21.621C6.63086 21.6718 6.55274 21.6991 6.47461 21.6991ZM9.11524 23.0741C8.93555 23.0741 8.78321 22.9374 8.76758 22.7538C8.75196 22.5605 8.89453 22.3905 9.08789 22.3749C9.1211 22.3729 12.5234 22.0526 15.1055 19.2675C15.169 19.1995 15.2569 19.1595 15.3499 19.1562C15.4429 19.1529 15.5334 19.1866 15.6016 19.2499C15.7441 19.3808 15.752 19.6034 15.6191 19.746C12.8457 22.7343 9.29493 23.0605 9.14649 23.0741C9.13477 23.0722 9.125 23.0741 9.11524 23.0741ZM4.25 9.01748C4.08594 9.01748 3.93946 8.90225 3.90821 8.73428C3.88868 8.63662 3.44727 6.32217 4.39844 3.57998C4.46289 3.39639 4.66016 3.29873 4.84375 3.36318C5.02539 3.42764 5.12305 3.6249 5.06055 3.8085C4.16993 6.3749 4.58985 8.57607 4.59571 8.59951C4.63282 8.78897 4.50977 8.97451 4.31836 9.01162C4.29688 9.01553 4.27344 9.01748 4.25 9.01748ZM14.4277 3.27334C14.3555 3.27334 14.2813 3.2499 14.2207 3.20303C14.2031 3.19131 12.3809 1.86904 9.69141 1.57412C9.5 1.55459 9.35938 1.38076 9.38086 1.18936C9.40039 0.995997 9.57422 0.859278 9.76563 0.878809C12.6523 1.19326 14.5547 2.57998 14.6348 2.63857C14.7891 2.75381 14.8223 2.97256 14.707 3.12881C14.6406 3.22451 14.5352 3.27334 14.4277 3.27334ZM23.2676 8.97061C23.166 8.97061 23.0645 8.92568 22.9941 8.83975C21.2871 6.72842 19.1973 5.91787 19.1777 5.91006C19.0909 5.87718 19.0206 5.81128 18.9822 5.72675C18.9438 5.64223 18.9403 5.54593 18.9727 5.45889C19.041 5.27725 19.2441 5.1874 19.4238 5.25381C19.5176 5.28897 21.7129 6.14053 23.5371 8.39834C23.6602 8.54873 23.6348 8.76943 23.4844 8.89053C23.4219 8.94522 23.3438 8.97061 23.2676 8.97061ZM17.0859 13.705C17.0723 13.705 17.0547 13.703 17.041 13.7011C16.9954 13.6952 16.9514 13.6804 16.9116 13.6574C16.8718 13.6345 16.8369 13.6039 16.8089 13.5674C16.7809 13.5309 16.7605 13.4892 16.7487 13.4448C16.7369 13.4004 16.734 13.354 16.7402 13.3085C17.1875 9.96084 16.7481 7.48818 16.7422 7.46279C16.707 7.27334 16.832 7.08975 17.0234 7.05654C17.2148 7.01943 17.3965 7.14834 17.4316 7.33779C17.4492 7.44326 17.8965 9.94522 17.4336 13.4022C17.4102 13.578 17.2598 13.705 17.0859 13.705ZM14.0469 16.5644C14.0352 16.5644 14.0273 16.5644 14.0156 16.5624C9.66407 16.1776 6.80079 13.7226 6.67969 13.619C6.6098 13.558 6.56688 13.4718 6.56029 13.3792C6.55371 13.2867 6.58399 13.1952 6.64454 13.1249C6.77149 12.9784 6.99219 12.9628 7.13868 13.0897C7.16797 13.1132 9.96094 15.5019 14.0781 15.8651C14.1676 15.8736 14.2505 15.9162 14.3095 15.984C14.3685 16.0519 14.3992 16.1398 14.3952 16.2296C14.3911 16.3194 14.3528 16.4043 14.2879 16.4666C14.2231 16.5289 14.1368 16.5639 14.0469 16.5644ZM1.54883 12.5507C1.25391 12.5507 0.931644 12.5136 0.630863 12.3983C0.544029 12.3655 0.473727 12.2996 0.435305 12.215C0.396883 12.1305 0.393461 12.0342 0.425785 11.9472C0.496098 11.7675 0.695316 11.6757 0.87891 11.7421C1.52344 11.9882 2.38477 11.7362 2.39454 11.7343C2.57813 11.6796 2.77344 11.7831 2.82813 11.9706C2.88477 12.1542 2.7793 12.3495 2.59571 12.4062C2.56641 12.414 2.10547 12.5507 1.54883 12.5507ZM20.6387 15.539C20.5059 15.539 20.3809 15.4628 20.3223 15.3358C20.2402 15.162 20.3184 14.953 20.4922 14.871C20.5117 14.8612 22.5469 13.8983 24.0957 11.6796C24.2051 11.5194 24.4238 11.4804 24.582 11.5917C24.7402 11.703 24.7793 11.9198 24.6699 12.078C23.0098 14.4589 20.877 15.4628 20.7871 15.5058C20.7363 15.5272 20.6875 15.539 20.6387 15.539ZM20.6387 21.4511C20.5605 21.4511 20.4824 21.4257 20.416 21.3749C19.6152 20.744 18.8398 19.5976 18.8066 19.5507C18.6973 19.3866 18.7402 19.164 18.9043 19.0526C19.0664 18.9433 19.291 18.9862 19.4004 19.1522C19.4082 19.162 20.1465 20.2519 20.8594 20.8124C21.0137 20.9354 21.041 21.1601 20.9199 21.3163C20.8477 21.4022 20.7441 21.4511 20.6387 21.4511Z" fill="#FF6F00"/>
<path d="M12.5 24.9453C5.63672 24.9453 0.0546875 19.3633 0.0546875 12.5C0.0546875 5.63867 5.63672 0.0546875 12.5 0.0546875C19.3633 0.0546875 24.9453 5.63867 24.9453 12.498C24.9453 19.3633 19.3613 24.9453 12.5 24.9453ZM12.5 1.45508C6.41016 1.45508 1.45508 6.41016 1.45508 12.5C1.45508 18.5898 6.4082 23.5449 12.498 23.5449C18.5879 23.5449 23.543 18.5898 23.543 12.5C23.5449 6.41016 18.5879 1.45508 12.5 1.45508Z" fill="#FF6F00"/>
<g filter="url(#filter0_d_447_808)">
<path d="M28.864 7.74H32.104V15.624H36.298V18H28.864V7.74ZM42.4063 18L42.1183 16.866C41.5663 17.766 40.7983 18.216 39.8143 18.216C39.0103 18.216 38.3503 17.994 37.8343 17.55C37.3303 17.094 37.0783 16.458 37.0783 15.642C37.0783 15.138 37.2223 14.7 37.5103 14.328C37.8103 13.944 38.2183 13.674 38.7343 13.518C39.4063 13.326 40.4443 13.218 41.8483 13.194C41.8483 12.402 41.8123 11.982 41.7403 11.934C41.6803 11.886 41.4883 11.862 41.1643 11.862C40.9603 11.862 40.6783 11.874 40.3183 11.898C39.7423 11.922 38.9623 11.988 37.9783 12.096C37.8823 11.448 37.8103 10.752 37.7623 10.008C38.3983 9.876 39.0643 9.768 39.7603 9.684C40.4563 9.588 41.0803 9.54 41.6323 9.54C42.5923 9.54 43.3123 9.702 43.7923 10.026C44.2723 10.338 44.5843 10.752 44.7283 11.268C44.8723 11.784 44.9383 12.438 44.9263 13.23L44.9083 15.876L44.9623 18H42.4063ZM40.8583 16.2C41.1703 16.2 41.5003 16.14 41.8483 16.02V14.688H41.7043C40.8163 14.688 40.3243 14.736 40.2283 14.832C40.1683 14.892 40.1203 14.982 40.0843 15.102C40.0603 15.222 40.0483 15.336 40.0483 15.444C40.0483 15.732 40.1143 15.93 40.2463 16.038C40.3783 16.146 40.5823 16.2 40.8583 16.2ZM52.0041 9.54C52.8681 9.54 53.5521 9.828 54.0561 10.404C54.5721 10.968 54.8301 11.958 54.8301 13.374C54.8301 14.43 54.7281 15.294 54.5241 15.966C54.3201 16.626 54.0861 17.064 53.8221 17.28C53.5581 17.496 53.0961 17.67 52.4361 17.802C51.7881 17.934 51.1161 18 50.4201 18C50.2161 18 49.8741 17.988 49.3941 17.964V20.52L46.3161 20.646V9.72H48.8361L49.1421 10.998C49.4541 10.554 49.8501 10.2 50.3301 9.936C50.8221 9.672 51.3801 9.54 52.0041 9.54ZM51.2841 15.804C51.4161 15.708 51.5121 15.438 51.5721 14.994C51.6321 14.538 51.6621 14.106 51.6621 13.698C51.6621 13.026 51.5781 12.528 51.4101 12.204C51.2421 11.88 50.9061 11.718 50.4021 11.718C50.0421 11.718 49.7061 11.754 49.3941 11.826V15.822L49.8981 15.876C50.0541 15.888 50.2761 15.894 50.5641 15.894C50.9721 15.894 51.2121 15.864 51.2841 15.804ZM60.9688 18L60.6808 16.866C60.1288 17.766 59.3608 18.216 58.3768 18.216C57.5728 18.216 56.9128 17.994 56.3968 17.55C55.8928 17.094 55.6408 16.458 55.6408 15.642C55.6408 15.138 55.7848 14.7 56.0728 14.328C56.3728 13.944 56.7808 13.674 57.2968 13.518C57.9688 13.326 59.0068 13.218 60.4108 13.194C60.4108 12.402 60.3748 11.982 60.3028 11.934C60.2428 11.886 60.0508 11.862 59.7268 11.862C59.5228 11.862 59.2408 11.874 58.8808 11.898C58.3048 11.922 57.5248 11.988 56.5408 12.096C56.4448 11.448 56.3728 10.752 56.3248 10.008C56.9608 9.876 57.6268 9.768 58.3228 9.684C59.0188 9.588 59.6428 9.54 60.1948 9.54C61.1548 9.54 61.8748 9.702 62.3548 10.026C62.8348 10.338 63.1468 10.752 63.2908 11.268C63.4348 11.784 63.5008 12.438 63.4888 13.23L63.4708 15.876L63.5248 18H60.9688ZM59.4208 16.2C59.7328 16.2 60.0628 16.14 60.4108 16.02V14.688H60.2668C59.3788 14.688 58.8868 14.736 58.7908 14.832C58.7308 14.892 58.6828 14.982 58.6468 15.102C58.6228 15.222 58.6108 15.336 58.6108 15.444C58.6108 15.732 58.6768 15.93 58.8088 16.038C58.9408 16.146 59.1448 16.2 59.4208 16.2ZM72.8886 10.242C72.9966 10.374 73.0746 10.704 73.1226 11.232C73.1826 11.76 73.2126 12.564 73.2126 13.644V18H70.1346V13.68V12.942C70.1346 12.558 70.1046 12.318 70.0446 12.222C69.9486 12.102 69.7266 12.042 69.3786 12.042C69.2106 12.042 69.0846 12.048 69.0006 12.06C68.6646 12.072 68.3166 12.15 67.9566 12.294V18H64.8786V9.72H67.3806L67.7226 11.106C68.5866 10.062 69.6186 9.54 70.8186 9.54C71.2506 9.54 71.6526 9.6 72.0246 9.72C72.4086 9.84 72.6966 10.014 72.8886 10.242ZM78.9545 9.576C79.5185 9.576 80.1065 9.618 80.7185 9.702C81.3305 9.774 82.0445 9.876 82.8605 10.008V17.172C82.8605 18.888 82.2905 20.22 81.1505 21.168C81.0065 21.288 80.6825 21.39 80.1785 21.474C79.6745 21.558 79.1045 21.6 78.4685 21.6C77.0885 21.6 75.9965 21.42 75.1925 21.06C75.1805 20.796 75.1985 20.448 75.2465 20.016C75.3065 19.584 75.3665 19.242 75.4265 18.99C76.2905 19.122 77.1365 19.188 77.9645 19.188C78.3845 19.188 78.7385 19.164 79.0265 19.116C79.3265 19.08 79.5125 19.02 79.5845 18.936C79.6805 18.84 79.7525 18.48 79.8005 17.856C79.8125 17.688 79.8185 17.442 79.8185 17.118V16.668C79.5185 17.112 79.1345 17.43 78.6665 17.622C78.1985 17.814 77.7785 17.91 77.4065 17.91C76.3985 17.91 75.6365 17.58 75.1205 16.92C74.6045 16.26 74.3465 15.294 74.3465 14.022C74.3465 13.182 74.4605 12.396 74.6885 11.664C74.9285 10.92 75.2525 10.404 75.6605 10.116C75.9245 9.936 76.3505 9.804 76.9385 9.72C77.5385 9.624 78.2105 9.576 78.9545 9.576ZM78.5765 15.66C79.0205 15.66 79.4225 15.588 79.7825 15.444V11.682C79.6505 11.658 79.4525 11.634 79.1885 11.61C79.0685 11.598 78.8885 11.592 78.6485 11.592C78.2765 11.592 78.0425 11.628 77.9465 11.7C77.8145 11.796 77.7065 12.066 77.6225 12.51C77.5505 12.942 77.5145 13.398 77.5145 13.878C77.5145 14.538 77.5865 15 77.7305 15.264C77.8865 15.528 78.1685 15.66 78.5765 15.66ZM93.122 18H89.774L88.064 14.634C87.896 14.286 87.674 14.064 87.398 13.968V18H84.32V7.2L87.398 7.074V13.212C87.686 13.092 87.932 12.846 88.136 12.474L89.666 9.72L93.032 9.702L91.286 12.51C91.01 12.954 90.71 13.308 90.386 13.572C90.662 13.872 90.974 14.328 91.322 14.94L93.122 18ZM102.057 9.72V18H99.5551L99.2131 16.614C98.3491 17.658 97.3171 18.18 96.1171 18.18C95.6851 18.18 95.2771 18.12 94.8931 18C94.5211 17.88 94.2391 17.706 94.0471 17.478C93.9391 17.346 93.8551 17.016 93.7951 16.488C93.7471 15.96 93.7231 15.156 93.7231 14.076V9.72H96.8011V14.04C96.8011 14.28 96.8071 14.562 96.8191 14.886C96.8311 15.21 96.8671 15.414 96.9271 15.498C97.0111 15.618 97.2511 15.678 97.6471 15.678L97.9351 15.66C98.2711 15.648 98.6191 15.57 98.9791 15.426V9.72H102.057Z" fill="#383838"/>
</g>
<defs>
<filter id="filter0_d_447_808" x="28.864" y="7.07422" width="74.1931" height="15.5259" filterUnits="userSpaceOnUse" color-interpolation-filters="sRGB">
<feFlood flood-opacity="0" result="BackgroundImageFix"/>
<feColorMatrix in="SourceAlpha" type="matrix" values="0 0 0 0 0 0 0 0 0 0 0 0 0 0 0 0 0 0 127 0" result="hardAlpha"/>
<feOffset dx="1" dy="1"/>
<feComposite in2="hardAlpha" operator="out"/>
<feColorMatrix type="matrix" values="0 0 0 0 1 0 0 0 0 0.435294 0 0 0 0 0 0 0 0 0.7 0"/>
<feBlend mode="normal" in2="BackgroundImageFix" result="effect1_dropShadow_447_808"/>
<feBlend mode="normal" in="SourceGraphic" in2="effect1_dropShadow_447_808" result="shape"/>
</filter>
</defs>
</svg>
