<svg width="102" height="102" viewBox="0 0 102 102" fill="none" xmlns="http://www.w3.org/2000/svg">
<path d="M102 76.5C102 79.5058 100.806 82.3885 98.6805 84.5139C96.5551 86.6393 93.6725 87.8333 90.6667 87.8333H11.3333C8.32755 87.8333 5.44487 86.6393 3.31946 84.5139C1.19404 82.3885 0 79.5058 0 76.5V25.5C0 22.4942 1.19404 19.6115 3.31946 17.4861C5.44487 15.3607 8.32755 14.1667 11.3333 14.1667H90.6667C93.6725 14.1667 96.5551 15.3607 98.6805 17.4861C100.806 19.6115 102 22.4942 102 25.5V76.5Z" fill="#CCD6DD"/>
<path d="M33.8583 49.9687L1.80477 82.0222C1.72827 82.1015 1.69993 82.2007 1.63477 82.28C2.5981 83.895 3.9411 85.2352 5.5561 86.2013C5.63827 86.1362 5.7346 86.1078 5.8111 86.0313L37.8674 53.975C38.3987 53.4434 38.697 52.7224 38.6968 51.9708C38.6965 51.2192 38.3977 50.4985 37.866 49.9673C37.3344 49.436 36.6134 49.1377 35.8618 49.1379C35.1102 49.1382 34.3895 49.437 33.8583 49.9687ZM100.365 82.28C100.306 82.2007 100.272 82.1015 100.195 82.025L68.1444 49.9687C67.8814 49.7054 67.569 49.4966 67.2253 49.354C66.8815 49.2115 66.513 49.1381 66.1408 49.1379C65.7687 49.1378 65.4002 49.211 65.0563 49.3533C64.7124 49.4956 64.3999 49.7042 64.1367 49.9673C63.8734 50.2303 63.6646 50.5426 63.522 50.8864C63.3795 51.2302 63.3061 51.5987 63.3059 51.9708C63.3058 52.343 63.379 52.7115 63.5213 53.0554C63.6636 53.3993 63.8722 53.7118 64.1353 53.975L96.1888 86.0313C96.2624 86.105 96.3644 86.1362 96.4438 86.2013C98.0554 85.2391 99.4029 83.8917 100.365 82.28Z" fill="#99AAB5"/>
<path d="M90.6667 14.1667H11.3333C8.32755 14.1667 5.44487 15.3607 3.31946 17.4861C1.19404 19.6115 0 22.4942 0 25.5L0 28.4183L41.1627 69.4903C43.7536 72.0683 47.26 73.5155 50.915 73.5155C54.57 73.5155 58.0764 72.0683 60.6673 69.4903L102 28.3588V25.5C102 22.4942 100.806 19.6115 98.6805 17.4861C96.5551 15.3607 93.6725 14.1667 90.6667 14.1667Z" fill="#99AAB5"/>
<path d="M90.6676 14.1667H11.3343C9.20129 14.1707 7.11299 14.7782 5.31059 15.9188C3.50819 17.0594 2.06524 18.6866 1.14844 20.6125L42.9854 62.4523C44.0378 63.5048 45.2872 64.3396 46.6623 64.9092C48.0374 65.4788 49.5112 65.772 50.9995 65.772C52.4879 65.772 53.9617 65.4788 55.3367 64.9092C56.7118 64.3396 57.9612 63.5048 59.0136 62.4523L100.853 20.6125C99.9366 18.6866 98.4937 17.0594 96.6913 15.9188C94.8889 14.7782 92.8006 14.1707 90.6676 14.1667Z" fill="#E1E8ED"/>
<path d="M42.5 26.265C42.5 24.1967 43.5342 22.6667 45.3333 22.6667H55.59C57.9672 22.6667 58.9163 24.055 58.9163 25.5C58.9163 26.9053 57.9275 28.3333 55.9838 28.3333H48.3112V34H55.488C57.5167 34 58.5055 35.3855 58.5055 36.8333C58.5055 38.2387 57.4685 39.6667 55.488 39.6667H48.3112V45.3333H56.3578C58.3383 45.3333 59.296 46.7188 59.296 48.1667C59.296 49.572 58.2958 51 56.3578 51H45.6875C43.8657 51 42.5 49.4955 42.5 47.634V26.265Z" fill="#66757F"/>
</svg>
