<svg width="57" height="57" viewBox="0 0 57 57" fill="none" xmlns="http://www.w3.org/2000/svg">
<path d="M4.75 46.3125V8.3125C4.75 5.7 6.8875 3.5625 9.5 3.5625H35.625C38.2375 3.5625 40.375 5.7 40.375 8.3125V46.3125C40.375 48.925 38.2375 51.0625 35.625 51.0625H9.5C6.8875 51.0625 4.75 48.925 4.75 46.3125Z" fill="#37474F"/>
<path d="M35.625 7.125H9.5C8.7875 7.125 8.3125 7.6 8.3125 8.3125V42.75C8.3125 43.4625 8.7875 43.9375 9.5 43.9375H35.625C36.3375 43.9375 36.8125 43.4625 36.8125 42.75V8.3125C36.8125 7.6 36.3375 7.125 35.625 7.125Z" fill="#BBDEFB"/>
<path d="M17.8125 46.3125H24.9375V48.6875H17.8125V46.3125Z" fill="#78909C"/>
<path d="M28.5 48.6875V20.1875C28.5 17.575 30.6375 15.4375 33.25 15.4375H47.5C50.1125 15.4375 52.25 17.575 52.25 20.1875V48.6875C52.25 51.3 50.1125 53.4375 47.5 53.4375H33.25C30.6375 53.4375 28.5 51.3 28.5 48.6875Z" fill="#E38939"/>
<path d="M47.5 19H33.25C32.5375 19 32.0625 19.475 32.0625 20.1875V46.3125C32.0625 47.025 32.5375 47.5 33.25 47.5H47.5C48.2125 47.5 48.6875 47.025 48.6875 46.3125V20.1875C48.6875 19.475 48.2125 19 47.5 19Z" fill="#FFF3E0"/>
<path d="M40.375 52.25C41.3588 52.25 42.1562 51.4525 42.1562 50.4688C42.1562 49.485 41.3588 48.6875 40.375 48.6875C39.3912 48.6875 38.5938 49.485 38.5938 50.4688C38.5938 51.4525 39.3912 52.25 40.375 52.25Z" fill="#A6642A"/>
</svg>
